<svg width="83" height="84" viewBox="0 0 83 84" fill="none" xmlns="http://www.w3.org/2000/svg">
<path d="M35.4348 81.3749V27.3236C23.2259 26.5938 15.406 23.6801 11.7546 21.9791C10.3975 21.3491 9.82527 19.7426 10.4815 18.4012C11.1036 17.1228 12.6051 16.5506 13.9045 17.1202C18.0363 18.9262 27.8511 22.3124 43.5198 22.3124C59.1018 22.3124 68.6699 18.9603 72.7071 17.1517C73.9934 16.5742 75.4949 17.1254 76.1328 18.3854C76.8126 19.7268 76.2588 21.3491 74.9016 21.9922C71.2713 23.7168 63.5039 26.6437 51.1848 27.3472V81.3749H46.1364L43.3098 55.9999L40.7273 81.3749H35.4348Z" fill="#FFCEAC"/>
<path d="M43.3101 17.0625C46.9344 17.0625 49.8726 14.1244 49.8726 10.5C49.8726 6.87563 46.9344 3.9375 43.3101 3.9375C39.6857 3.9375 36.7476 6.87563 36.7476 10.5C36.7476 14.1244 39.6857 17.0625 43.3101 17.0625Z" fill="#FFCEAC"/>
<path d="M43.3125 56.4375C52.7359 56.4375 60.375 48.7984 60.375 39.375C60.375 29.9516 52.7359 22.3125 43.3125 22.3125C33.8891 22.3125 26.25 29.9516 26.25 39.375C26.25 48.7984 33.8891 56.4375 43.3125 56.4375Z" fill="#ECEFF1"/>
<path d="M30.1875 42C30.1875 33.3008 37.2383 26.25 45.9375 26.25C51.7309 26.25 56.7788 29.3842 59.514 34.0436C57.2723 27.2317 50.8725 22.3125 43.3125 22.3125C33.8888 22.3125 26.25 29.9513 26.25 39.375C26.25 46.935 31.1692 53.3348 37.9811 55.5765C33.3217 52.8413 30.1875 47.7934 30.1875 42Z" fill="white"/>
<path d="M13.125 73.5C14.175 73.5 15.1646 73.0905 15.9101 72.3476L26.4101 61.8476C27.153 61.1021 27.5625 60.1125 27.5625 59.0625C27.5625 58.0125 27.153 57.0229 26.4101 56.2774C25.6672 55.5319 24.675 55.125 23.625 55.125C22.575 55.125 21.5854 55.5345 20.8399 56.2774L10.3399 66.7774C9.597 67.5229 9.1875 68.5125 9.1875 69.5625C9.1875 70.6125 9.597 71.6021 10.3399 72.3476C11.0827 73.0931 12.075 73.5 13.125 73.5Z" fill="#C37F38"/>
<path d="M13.125 74.8125C11.7233 74.8125 10.4055 74.2666 9.41325 73.2743C8.421 72.282 7.875 70.9643 7.875 69.5626C7.875 68.1608 8.421 66.8431 9.41325 65.8508L19.9132 55.3508C21.8977 53.3663 25.3522 53.3663 27.3367 55.3508C28.329 56.3431 28.875 57.6608 28.875 59.0626C28.875 60.4643 28.329 61.782 27.3367 62.7743L16.8368 73.2743C15.8445 74.2666 14.5268 74.8125 13.125 74.8125ZM23.625 56.4376C22.9241 56.4376 22.2653 56.7105 21.7691 57.2067L11.2691 67.7067C10.773 68.2028 10.5 68.8617 10.5 69.5626C10.5 70.2634 10.773 70.9223 11.2691 71.4184C12.264 72.4081 13.986 72.4081 14.9809 71.4184L25.4809 60.9184C25.977 60.4223 26.25 59.7634 26.25 59.0626C26.25 58.3617 25.977 57.7028 25.4809 57.2067C24.9847 56.7105 24.3259 56.4376 23.625 56.4376Z" fill="#455A64"/>
<path d="M26.5124 57.4875C26.1764 57.4875 25.8404 57.3589 25.5831 57.1043C25.0713 56.5924 25.0713 55.7603 25.5831 55.2484L29.7857 51.0458C30.2976 50.5339 31.1297 50.5339 31.6416 51.0458C32.1535 51.5576 32.1535 52.3898 31.6416 52.9016L27.439 57.1043C27.1817 57.3615 26.8484 57.4875 26.5124 57.4875Z" fill="#455A64"/>
<path d="M43.3125 57.75C33.1826 57.75 24.9375 49.5049 24.9375 39.375C24.9375 29.2451 33.1826 21 43.3125 21C53.4424 21 61.6875 29.2451 61.6875 39.375C61.6875 49.5049 53.4424 57.75 43.3125 57.75ZM43.3125 23.625C34.6264 23.625 27.5625 30.6889 27.5625 39.375C27.5625 48.0611 34.6264 55.125 43.3125 55.125C51.9986 55.125 59.0625 48.0611 59.0625 39.375C59.0625 30.6889 51.9986 23.625 43.3125 23.625Z" fill="#455A64"/>
</svg>
