<svg width="24" height="24" viewBox="0 0 24 24" fill="none" xmlns="http://www.w3.org/2000/svg">
<path d="M0 6C0 2.68629 2.68629 0 6 0H18C21.3137 0 24 2.68629 24 6V18C24 21.3137 21.3137 24 18 24H6C2.68629 24 0 21.3137 0 18V6Z" fill="#F7C189"/>
<path d="M19.1634 17.2558L17.8932 9.26124C17.7381 8.34737 16.9251 7.68398 15.9596 7.68398H15.4646V6.82779C15.4646 5.04794 13.9551 3.6001 12.0993 3.6001C10.2438 3.6001 8.73411 5.04794 8.73411 6.82779V7.68398H8.04016C7.07487 7.68398 6.2615 8.34737 6.10555 9.26735L4.83705 17.2492C4.7034 18.0363 4.93543 18.8365 5.47406 19.4438C6.01269 20.0516 6.79844 20.4001 7.63007 20.4001H16.3697C17.2014 20.4001 17.9871 20.0516 18.5255 19.4442C19.0639 18.8365 19.2964 18.0363 19.1634 17.2558ZM10.0396 6.82779C10.0396 5.73844 10.9636 4.85229 12.0993 4.85229C13.2352 4.85229 14.1591 5.73844 14.1591 6.82779V7.68398H10.0396V6.82779ZM17.5311 18.6331C17.2409 18.9604 16.8176 19.1479 16.3697 19.1479H7.63007C7.18217 19.1479 6.7587 18.96 6.46867 18.6327C6.17864 18.3058 6.05349 17.8745 6.12658 17.4441L7.39507 9.46219C7.44671 9.1575 7.71804 8.93617 8.04016 8.93617H15.9596C16.2817 8.93617 16.5529 9.1575 16.6039 9.45608L17.8741 17.4506C17.9463 17.8749 17.8209 18.3058 17.5311 18.6331Z" fill="#475467"/>
</svg>
