<svg width="24" height="24" viewBox="0 0 24 24" fill="none" xmlns="http://www.w3.org/2000/svg">
<path d="M0 6C0 2.68629 2.68629 0 6 0H18C21.3137 0 24 2.68629 24 6V18C24 21.3137 21.3137 24 18 24H6C2.68629 24 0 21.3137 0 18V6Z" fill="#F7C189"/>
<path fill-rule="evenodd" clip-rule="evenodd" d="M6.32175 9.02211C6.61107 8.67912 6.93241 8.38541 7.25273 8.12973C7.62282 7.83434 8.02283 7.56633 8.36424 7.33759C8.49709 7.24858 8.62107 7.16552 8.73096 7.0891C8.93996 6.94375 9.10444 6.81933 9.22907 6.7045C9.35624 6.58731 9.40892 6.50963 9.42836 6.46903C9.59804 6.11477 10.0057 5.97379 10.339 6.15416C10.6722 6.33454 10.8048 6.76795 10.6352 7.12223C10.5043 7.39547 10.3082 7.61529 10.1161 7.79237C9.92134 7.97179 9.6959 8.13837 9.47231 8.29386C9.32549 8.39597 9.17951 8.4937 9.03396 8.59116C8.71071 8.80759 8.38955 9.02261 8.06583 9.281C7.17034 9.99575 6.49539 10.861 6.59048 12.2928C6.59455 12.3541 6.59128 12.4142 6.58144 12.4721C6.76469 12.9056 7.00323 13.3158 7.28986 13.6932C7.57136 12.6505 8.11892 11.7818 8.89584 11.0611C10.0369 10.0028 11.6402 9.29309 13.5125 8.74564C14.2325 8.53513 14.6434 8.17953 14.8739 7.80699C15.109 7.42723 15.1987 6.96129 15.1585 6.46255C15.118 5.96069 14.9472 5.45607 14.6996 5.04538C14.488 4.69431 14.2464 4.45375 14.0276 4.32547C13.3848 4.01401 12.6994 3.83967 12.0001 3.83967C10.4734 3.83967 9.01305 4.67052 7.91762 5.94482C7.14343 6.84544 6.58416 7.9307 6.32175 9.02211ZM14.3514 2.90561C13.6158 2.5841 12.8245 2.40002 12.0001 2.40002C10.0045 2.40002 8.20344 3.47823 6.91795 4.97364C5.63477 6.46637 4.80005 8.44859 4.80005 10.3806C4.80005 12.398 5.6878 14.2344 7.07756 15.5264C7.08447 15.5819 7.09732 15.6354 7.11543 15.6861C7.34135 16.8016 7.88375 17.8642 8.61446 18.6933C8.61423 18.7011 8.61411 18.7089 8.61411 18.7167V20.8802C8.61411 21.2777 8.91726 21.6 9.29122 21.6C9.66518 21.6 9.96834 21.2777 9.96834 20.8802V19.8208C10.5854 20.1797 11.2735 20.3959 12 20.3959C12.7262 20.3959 13.4142 20.1798 14.0311 19.8211V20.8802C14.0311 21.2777 14.3342 21.6 14.7082 21.6C15.0822 21.6 15.3853 21.2777 15.3853 20.8802V18.7167C15.3853 18.709 15.3852 18.7014 15.385 18.6939C16.1488 17.8273 16.7069 16.7057 16.913 15.5353C18.3082 14.2428 19.2 12.4026 19.2 10.3806C19.2 8.44859 18.3654 6.46637 17.0822 4.97364C16.3954 4.17473 15.5615 3.49489 14.6294 3.03492C14.5513 2.99174 14.4712 2.95317 14.3892 2.91971C14.3767 2.91458 14.364 2.90989 14.3514 2.90561ZM16.5178 6.50203C16.5484 7.20656 16.4087 7.94633 16.0053 8.59822C15.6225 9.21672 15.0339 9.70507 14.2367 10.0109C15.5763 10.8382 16.4803 12.1317 16.8204 13.5432C17.4718 12.6257 17.8458 11.53 17.8458 10.3806C17.8458 9.0816 17.3537 7.68095 16.5178 6.50203ZM15.5974 15.1764C15.7826 13.3723 14.5864 11.3061 12.2327 10.694C11.2151 11.1044 10.3977 11.5787 9.78617 12.146C8.93093 12.9392 8.4513 13.9377 8.42688 15.3192C8.59441 16.212 9.04103 17.0955 9.65971 17.7726C10.339 18.5159 11.1727 18.9563 12 18.9563C12.8271 18.9563 13.6608 18.5159 14.3401 17.7726C14.9918 17.0594 15.4526 16.1172 15.5974 15.1764Z" fill="#475467"/>
</svg>
