<svg width="24" height="24" viewBox="0 0 24 24" fill="none" xmlns="http://www.w3.org/2000/svg">
<path d="M0 6C0 2.68629 2.68629 0 6 0H18C21.3137 0 24 2.68629 24 6V18C24 21.3137 21.3137 24 18 24H6C2.68629 24 0 21.3137 0 18V6Z" fill="#F7C189"/>
<path d="M16.7925 6.40586C16.7189 5.0176 16.0592 4 15.2 4C14.3408 4 13.6779 5.0224 13.6069 6.41653C13.0136 6.62908 12.4677 6.95576 12 7.37813C11.5321 6.95633 10.9862 6.6302 10.3931 6.41813C10.3221 5.0224 9.66133 4 8.79999 4C7.93866 4 7.28106 5.0176 7.20746 6.40586C6.27055 6.73661 5.45912 7.3495 4.88476 8.16024C4.31039 8.97098 4.0013 9.93975 4 10.9333C4 15.4576 11.4197 19.7493 11.7333 19.9296C11.8139 19.9756 11.9051 19.9998 11.9979 19.9998C12.0906 19.9998 12.1818 19.9756 12.2624 19.9296C12.5803 19.7493 20 15.4576 20 10.9333C19.9987 9.93975 19.6896 8.97098 19.1152 8.16024C18.5409 7.3495 17.7294 6.73661 16.7925 6.40586ZM15.2 5.06667C15.3067 5.06667 15.5925 5.44 15.6944 6.15893C15.5301 6.14178 15.3651 6.13324 15.2 6.13333C15.0334 6.13399 14.8669 6.14378 14.7013 6.16266C14.8011 5.4512 15.0933 5.06667 15.2 5.06667ZM8.79999 5.06667C8.90666 5.06667 9.19306 5.44 9.29439 6.1616C9.13019 6.14361 8.96517 6.13418 8.79999 6.13333C8.63343 6.13341 8.46699 6.14214 8.30133 6.15946C8.40159 5.45013 8.69333 5.06667 8.79999 5.06667ZM12 18.8453C10.7003 18.0522 5.06667 14.4117 5.06667 10.9333C5.06767 10.2125 5.27717 9.50742 5.66989 8.90301C6.06261 8.2986 6.62179 7.8207 7.28 7.52693C7.48533 8.59839 8.07039 9.33333 8.79999 9.33333C8.94144 9.33333 9.0771 9.27714 9.17712 9.17712C9.27714 9.0771 9.33333 8.94144 9.33333 8.79999C9.33333 8.65855 9.27714 8.52289 9.17712 8.42287C9.0771 8.32285 8.94144 8.26666 8.79999 8.26666C8.69333 8.26666 8.41866 7.90506 8.31093 7.23573C8.92017 7.14962 9.54129 7.21943 10.1162 7.43862C10.6912 7.65781 11.2011 8.01922 11.5984 8.48906C11.6499 8.54399 11.7121 8.58778 11.7811 8.61771C11.8502 8.64764 11.9247 8.66309 12 8.66309C12.0753 8.66309 12.1498 8.64764 12.2188 8.61771C12.2879 8.58778 12.3501 8.54399 12.4016 8.48906C12.7558 8.08334 13.1921 7.7574 13.6816 7.5328C13.8875 8.60159 14.4715 9.33333 15.2 9.33333C15.3414 9.33333 15.4771 9.27714 15.5771 9.17712C15.6771 9.0771 15.7333 8.94144 15.7333 8.79999C15.7333 8.65855 15.6771 8.52289 15.5771 8.42287C15.4771 8.32285 15.3414 8.26666 15.2 8.26666C15.0933 8.26666 14.8187 7.90453 14.7109 7.23466C14.873 7.21215 15.0364 7.20057 15.2 7.2C16.1898 7.20113 17.1387 7.59482 17.8386 8.29471C18.5385 8.9946 18.9322 9.94353 18.9333 10.9333C18.9333 14.4075 13.2997 18.0512 12 18.8453Z" fill="#475467"/>
<path d="M9.86683 10.4C9.72538 10.4 9.58972 10.4562 9.48971 10.5562C9.38969 10.6563 9.3335 10.7919 9.3335 10.9334V15.2C9.3335 15.3415 9.38969 15.4771 9.48971 15.5771C9.58972 15.6772 9.72538 15.7334 9.86683 15.7334C10.0083 15.7334 10.1439 15.6772 10.244 15.5771C10.344 15.4771 10.4002 15.3415 10.4002 15.2V10.9334C10.4002 10.7919 10.344 10.6563 10.244 10.5562C10.1439 10.4562 10.0083 10.4 9.86683 10.4Z" fill="#475467"/>
<path d="M14.1332 10.4C13.9918 10.4 13.8561 10.4562 13.7561 10.5562C13.6561 10.6563 13.5999 10.7919 13.5999 10.9334V12.5334H12.5332V10.9334C12.5332 10.7919 12.477 10.6563 12.377 10.5562C12.277 10.4562 12.1413 10.4 11.9999 10.4C11.8584 10.4 11.7228 10.4562 11.6228 10.5562C11.5227 10.6563 11.4666 10.7919 11.4666 10.9334V13.0667C11.4666 13.2081 11.5227 13.3438 11.6228 13.4438C11.7228 13.5438 11.8584 13.6 11.9999 13.6H13.5999V15.2C13.5999 15.3415 13.6561 15.4771 13.7561 15.5771C13.8561 15.6772 13.9918 15.7334 14.1332 15.7334C14.2747 15.7334 14.4103 15.6772 14.5103 15.5771C14.6104 15.4771 14.6665 15.3415 14.6665 15.2V10.9334C14.6665 10.7919 14.6104 10.6563 14.5103 10.5562C14.4103 10.4562 14.2747 10.4 14.1332 10.4Z" fill="#475467"/>
</svg>
