<svg width="24" height="24" viewBox="0 0 24 24" fill="none" xmlns="http://www.w3.org/2000/svg">
<path d="M0 6C0 2.68629 2.68629 0 6 0H18C21.3137 0 24 2.68629 24 6V18C24 21.3137 21.3137 24 18 24H6C2.68629 24 0 21.3137 0 18V6Z" fill="#F7C189"/>
<path fill-rule="evenodd" clip-rule="evenodd" d="M14.8018 4.33912C14.8595 3.87945 15.2977 3.55125 15.7807 3.60608L15.6764 4.43838C15.7807 3.60608 15.7813 3.60615 15.7819 3.60621L15.7831 3.60637L15.7857 3.60667L15.7915 3.60737L15.8054 3.60916C15.8155 3.61053 15.8275 3.61226 15.8413 3.61444C15.869 3.61878 15.9038 3.6249 15.9451 3.63341C16.0276 3.6504 16.1362 3.67703 16.2644 3.71828C16.5205 3.80075 16.8571 3.94254 17.2171 4.18417C17.952 4.67746 18.7237 5.54632 19.1404 7.02613C19.2663 7.47329 18.9875 7.93291 18.5176 8.05273C18.0478 8.17254 17.5648 7.90718 17.4389 7.46003C17.1261 6.34898 16.5912 5.81549 16.2019 5.55414C15.9997 5.41846 15.8198 5.34487 15.6999 5.30629C15.64 5.28701 15.5958 5.27668 15.5724 5.27186C15.5643 5.27021 15.5589 5.26922 15.5561 5.26875C15.0815 5.20665 14.7449 4.79371 14.8018 4.33912ZM10.1151 4.12084C9.17543 4.36047 8.61777 5.27971 8.86956 6.17401L8.94734 6.45028C7.1524 7.62269 6.23851 9.78442 6.83406 11.8997L7.65461 14.8141L6.78554 16.9656C6.54781 17.5542 6.67721 18.2199 7.12041 18.6887C7.56362 19.1573 8.24568 19.3496 8.88564 19.1864L13.1412 18.1012L14.8428 17.6674C14.9687 18.1145 14.69 18.5747 14.2201 18.6944C13.7502 18.8143 13.2672 18.5484 13.1412 18.1012L11.44 18.5357C11.8177 19.8771 13.2665 20.6732 14.676 20.3138C16.0855 19.9543 16.9221 18.5754 16.5443 17.234L19.0945 16.5831C19.7344 16.42 20.224 15.9288 20.3616 15.312C20.4992 14.6952 20.2615 14.0571 19.7464 13.6605L17.8635 12.2108L17.0429 9.29634C16.4474 7.18128 14.5205 5.74411 12.3503 5.58268L12.2725 5.30624C12.0207 4.41193 11.0549 3.88121 10.1151 4.12084ZM18.6385 14.9638L16.7555 13.5141C16.4661 13.2912 16.2583 12.9869 16.162 12.6446L15.3414 9.73022C14.8378 7.94161 12.906 6.88016 11.0266 7.35942C9.14726 7.83868 8.03195 9.67716 8.53553 11.4658L9.35608 14.3802C9.45243 14.7224 9.43238 15.0849 9.29881 15.4156L8.42974 17.5672L18.6385 14.9638ZM4.94105 6.37056C5.33053 6.09324 5.8825 6.16892 6.17389 6.5396C6.46205 6.90617 6.38746 7.42398 6.00906 7.7036C6.00692 7.70532 6.00268 7.70879 5.9966 7.71404C5.97886 7.72936 5.94598 7.75934 5.90426 7.80453C5.82075 7.89497 5.70354 8.04434 5.59977 8.25804C5.39988 8.66964 5.21692 9.3862 5.52973 10.4972C5.65563 10.9444 5.3768 11.404 4.90695 11.5238C4.43711 11.6437 3.95416 11.3783 3.82826 10.9311C3.41163 9.45131 3.62349 8.33163 4.00079 7.55472C4.18561 7.17415 4.40259 6.8912 4.58112 6.69787C4.67041 6.60118 4.75052 6.52642 4.81301 6.47246C4.84428 6.44546 4.87125 6.42357 4.8929 6.40666C4.90372 6.3982 4.91323 6.39098 4.92129 6.38497L4.9323 6.37686L4.93696 6.37348L4.93908 6.37196L4.94008 6.37124C4.94057 6.37089 4.94105 6.37056 5.46865 7.04171L4.94105 6.37056Z" fill="#475467"/>
</svg>
