<?xml version="1.0" standalone="no"?>
<!DOCTYPE svg PUBLIC "-//W3C//DTD SVG 20010904//EN"
 "http://www.w3.org/TR/2001/REC-SVG-20010904/DTD/svg10.dtd">
<svg version="1.0" xmlns="http://www.w3.org/2000/svg"
 width="300.000000pt" height="300.000000pt" viewBox="0 0 300.000000 300.000000"
 preserveAspectRatio="xMidYMid meet">
<metadata>
Created by potrace 1.10, written by Peter Selinger 2001-2011
</metadata>
<g transform="translate(0.000000,300.000000) scale(0.100000,-0.100000)"
fill="#000000" stroke="none">
<path d="M1572 2353 c48 -52 71 -112 73 -194 2 -67 6 -81 32 -120 17 -24 43
-55 57 -68 l26 -25 -27 -28 c-26 -28 -26 -28 -10 -63 16 -33 16 -35 -4 -46
-19 -10 -20 -12 -4 -29 12 -13 13 -20 5 -25 -8 -5 -10 -26 -5 -65 5 -40 3 -60
-5 -65 -7 -4 -50 -9 -97 -11 -148 -6 -196 -46 -200 -167 l-2 -72 9 57 c19 119
66 158 192 158 40 0 84 6 98 13 22 11 25 20 27 77 3 84 6 112 16 127 4 7 1 26
-8 44 -16 29 -16 32 4 53 29 31 26 57 -10 92 -55 52 -78 102 -78 171 0 33 -7
78 -16 100 -23 56 -65 113 -83 113 -12 0 -9 -7 10 -27z"/>
<path d="M1755 2299 c50 -61 68 -109 70 -191 2 -83 17 -118 74 -172 37 -35 37
-38 10 -76 -20 -26 -21 -32 -9 -60 11 -27 11 -32 -5 -43 -15 -12 -15 -14 -1
-26 12 -10 13 -18 6 -32 -6 -10 -7 -42 -4 -73 l7 -55 -34 -5 c-19 -3 -67 -7
-107 -9 -117 -7 -165 -54 -168 -165 -1 -37 0 -53 2 -37 23 144 71 185 213 185
93 0 115 12 111 61 -2 32 -2 55 1 119 0 14 5 30 11 37 6 8 4 22 -7 42 -14 29
-14 32 5 51 30 30 25 61 -16 101 -53 51 -68 85 -70 160 -2 70 -33 150 -76 197
-32 34 -43 26 -13 -9z"/>
<path d="M1402 2114 c-7 -8 -12 -27 -10 -42 2 -22 8 -27 32 -27 39 0 54 25 36
59 -15 29 -38 33 -58 10z m44 -25 c10 -17 -13 -36 -27 -22 -12 12 -4 33 11 33
5 0 12 -5 16 -11z"/>
<path d="M1120 2055 c-10 -12 -10 -18 0 -30 7 -8 18 -15 25 -15 7 0 18 7 25
15 10 12 10 18 0 30 -7 8 -18 15 -25 15 -7 0 -18 -7 -25 -15z"/>
<path d="M1287 2054 c-14 -14 -7 -35 11 -32 9 2 17 10 17 17 0 16 -18 25 -28
15z"/>
<path d="M983 2024 c-7 -19 2 -28 22 -21 19 8 19 23 0 31 -9 3 -18 -1 -22 -10z"/>
<path d="M1198 1989 c-10 -5 -18 -21 -18 -34 0 -30 27 -46 58 -34 28 11 30 54
3 69 -23 12 -22 12 -43 -1z m37 -30 c10 -15 -1 -23 -20 -15 -9 3 -13 10 -10
16 8 13 22 13 30 -1z"/>
<path d="M1336 1959 c-54 -42 -19 -129 52 -129 66 0 95 78 47 125 -30 30 -64
32 -99 4z m89 -15 c26 -26 16 -76 -18 -92 -39 -19 -77 5 -77 48 0 53 58 80 95
44z"/>
<path d="M1510 1965 c-10 -12 -11 -24 -4 -43 7 -21 16 -27 39 -27 28 0 30 2
30 40 0 36 -3 40 -26 43 -15 2 -31 -4 -39 -13z m47 -21 c8 -21 -13 -42 -28
-27 -13 13 -5 43 11 43 6 0 13 -7 17 -16z"/>
<path d="M887 1963 c-12 -11 -8 -23 8 -23 8 0 15 7 15 15 0 16 -12 20 -23 8z"/>
<path d="M1036 1961 c-3 -5 0 -14 8 -20 10 -8 16 -8 25 2 6 8 8 17 4 20 -9 10
-31 9 -37 -2z"/>
<path d="M1114 1869 c-3 -6 -2 -15 4 -21 13 -13 32 -2 32 18 0 16 -26 19 -36
3z"/>
<path d="M1154 1805 c-8 -21 2 -45 19 -45 8 0 20 7 27 15 10 12 10 18 0 30 -7
8 -19 15 -27 15 -7 0 -16 -7 -19 -15z"/>
<path d="M1288 1809 c-23 -13 -24 -65 -2 -73 61 -23 101 44 43 74 -21 12 -20
12 -41 -1z m40 -36 c-2 -10 -10 -18 -18 -18 -8 0 -16 8 -18 18 -2 12 3 17 18
17 15 0 20 -5 18 -17z"/>
<path d="M1014 1799 c-10 -17 13 -36 27 -22 12 12 4 33 -11 33 -5 0 -12 -5
-16 -11z"/>
<path d="M1445 1770 c-15 -16 -17 -26 -9 -48 8 -22 16 -28 47 -30 31 -3 39 0
46 20 22 59 -43 103 -84 58z m64 -14 c16 -20 3 -46 -24 -46 -27 0 -36 17 -23
43 10 20 31 22 47 3z"/>
<path d="M832 1268 c-25 -25 -13 -57 33 -90 50 -36 57 -63 20 -80 -19 -9 -29
-7 -51 7 -22 14 -25 22 -20 48 4 23 3 28 -4 17 -28 -43 4 -90 62 -90 41 0 68
25 68 63 0 21 -11 35 -45 59 -47 33 -55 60 -21 66 11 3 26 -4 33 -14 12 -17
13 -16 13 4 0 19 -6 22 -38 22 -21 0 -43 -5 -50 -12z"/>
<path d="M968 1273 c8 -3 12 -30 12 -83 0 -53 -4 -80 -12 -83 -7 -3 3 -6 22
-6 l35 -1 0 90 0 90 -35 -1 c-19 0 -29 -3 -22 -6z"/>
<path d="M1080 1269 c0 -6 -11 -25 -25 -43 -14 -18 -25 -37 -25 -42 0 -5 14
-26 31 -47 21 -26 38 -37 57 -37 15 0 22 4 17 8 -6 4 -25 26 -43 49 -37 47
-34 64 14 102 l27 21 -27 0 c-14 0 -26 -5 -26 -11z"/>
<path d="M1165 1190 l0 -90 35 1 c19 0 29 3 23 6 -9 3 -13 30 -13 83 0 53 4
80 13 83 6 3 -4 6 -23 6 l-35 1 0 -90z"/>
<path d="M1267 1205 c4 -53 2 -79 -7 -90 -11 -13 -7 -15 26 -14 22 0 33 3 27
6 -8 3 -13 25 -13 61 l0 56 65 -64 65 -64 0 86 c0 60 4 88 13 91 6 3 -8 6 -33
6 -28 0 -40 -3 -32 -8 9 -5 12 -24 10 -54 l-3 -47 -62 55 -61 55 5 -75z"/>
<path d="M1478 1273 c8 -3 12 -30 12 -83 0 -53 -4 -80 -12 -83 -7 -3 17 -6 53
-6 52 -1 68 2 73 15 11 29 6 34 -14 14 -20 -20 -55 -27 -63 -12 -2 4 -1 42 2
85 l6 77 -35 -1 c-19 0 -29 -3 -22 -6z"/>
<path d="M1622 1268 c46 -36 78 -148 46 -161 -7 -3 7 -5 32 -5 25 0 39 2 33 5
-23 9 -15 73 15 119 29 47 42 55 42 27 1 -17 1 -17 11 0 5 9 21 17 34 17 24 0
25 -3 25 -66 0 -36 -5 -74 -10 -85 -10 -17 -7 -19 27 -18 21 0 32 3 26 6 -9 3
-13 30 -13 84 0 77 1 79 25 79 13 0 29 -8 34 -17 9 -16 10 -16 11 5 0 21 -2
22 -111 22 -60 0 -108 -3 -106 -8 3 -4 -3 -22 -12 -40 l-17 -34 -17 26 c-9 14
-17 32 -17 41 0 11 -10 15 -37 15 -31 0 -34 -2 -21 -12z"/>
<path d="M1978 1273 c8 -3 12 -30 12 -83 0 -53 -4 -80 -12 -83 -7 -3 3 -6 23
-6 l36 -1 -10 45 c-7 31 -7 59 0 90 l10 45 -36 -1 c-20 0 -30 -3 -23 -6z"/>
<path d="M2115 1269 c-32 -18 -45 -40 -45 -75 0 -46 9 -63 41 -79 63 -33 129
-9 129 46 -1 22 -2 22 -14 -7 -33 -74 -116 -49 -116 36 0 70 57 103 101 59
l21 -21 -4 24 c-3 20 -9 23 -48 25 -25 2 -54 -2 -65 -8z"/>
<path d="M2282 1268 c-24 -24 -13 -57 28 -86 27 -18 39 -33 37 -47 -3 -28 -43
-32 -59 -6 -16 26 -28 27 -28 2 0 -21 19 -31 56 -31 42 0 64 18 64 50 0 24 -8
35 -41 55 -26 17 -39 32 -37 43 4 23 32 27 52 7 15 -15 16 -15 16 4 0 18 -6
21 -38 21 -21 0 -43 -5 -50 -12z"/>
</g>
</svg>
