<svg width="386" height="400" viewBox="0 0 386 400" fill="none" xmlns="http://www.w3.org/2000/svg">
<path d="M375.608 103.59C370.863 97.2683 359.825 84.3288 340.828 75.8088C324.019 68.2724 308.957 67.7787 301.152 68.0627C298.814 72.9349 296.474 77.8071 294.135 82.6792C299.993 89.2303 310.317 99.1647 325.854 106.983C343.557 115.895 359.702 117.866 368.876 118.32C371.13 113.411 373.364 108.501 375.608 103.59Z" fill="#DFA160"/>
<mask id="mask0_2031_1154" style="mask-type:luminance" maskUnits="userSpaceOnUse" x="279" y="67" width="31" height="70">
<path d="M279.93 67.4185H309.68V136.863H279.93V67.4185Z" fill="white"/>
</mask>
<g mask="url(#mask0_2031_1154)">
<path d="M297.473 74.2542L289.666 70.5281C288.943 70.8219 285.416 72.3402 283.687 76.3308C282.156 79.8473 283.001 83.0131 283.258 83.8751C291.521 93.4118 301.323 107.905 305.382 127.233C306.058 130.455 306.534 133.582 306.837 136.578" stroke="#BBB7B3" stroke-width="15.1607" stroke-miterlimit="10"/>
</g>
<mask id="mask1_2031_1154" style="mask-type:luminance" maskUnits="userSpaceOnUse" x="316" y="96" width="70" height="68">
<path d="M316.175 96.1992H385.052V163.175H316.175V96.1992Z" fill="white"/>
</mask>
<g mask="url(#mask1_2031_1154)">
<mask id="mask2_2031_1154" style="mask-type:luminance" maskUnits="userSpaceOnUse" x="316" y="96" width="74" height="68">
<path d="M316.397 140.061L370.651 96.5129L389.307 119.614L335.053 163.164L316.397 140.061Z" fill="white"/>
</mask>
<g mask="url(#mask2_2031_1154)">
<path d="M372.964 110.293L380.771 114.019C380.999 114.767 382.027 118.454 379.991 122.304C378.205 125.697 375.2 127.023 374.363 127.364C361.736 126.929 344.261 128.408 326.616 137.365C323.668 138.862 320.939 140.454 318.4 142.094" stroke="#BBB7B3" stroke-width="15.1607" stroke-miterlimit="10"/>
</g>
</g>
<path d="M300.478 133.847L324.595 145.356L315.715 163.85L291.598 152.34L300.478 133.847Z" fill="#664724"/>
<mask id="mask3_2031_1154" style="mask-type:luminance" maskUnits="userSpaceOnUse" x="210" y="53" width="176" height="192">
<path d="M210.389 53.0686H385.053V244.648H210.389V53.0686Z" fill="white"/>
</mask>
<g mask="url(#mask3_2031_1154)">
<path d="M300.478 133.846L324.594 145.356L315.715 163.849L291.598 152.34L300.478 133.846Z" stroke="#BBB7B3" stroke-width="15.1607" stroke-miterlimit="10"/>
</g>
<path d="M261.334 266.809L245.189 259.102C252.236 241.481 260.326 222.93 269.634 203.689C278.088 186.22 286.72 169.907 295.295 154.75C300.677 157.318 306.059 159.886 311.44 162.456C304.7 178.797 297.197 195.774 288.85 213.253C279.779 232.25 270.538 250.106 261.334 266.809Z" fill="#664724"/>
<mask id="mask4_2031_1154" style="mask-type:luminance" maskUnits="userSpaceOnUse" x="164" y="73" width="222" height="275">
<path d="M164.109 73.6311H385.052V347.459H164.109V73.6311Z" fill="white"/>
</mask>
<g mask="url(#mask4_2031_1154)">
<path d="M261.333 266.809L245.189 259.102C252.235 241.481 260.325 222.93 269.634 203.689C278.087 186.22 286.719 169.907 295.295 154.75C300.677 157.318 306.059 159.886 311.439 162.456C304.699 178.797 297.197 195.774 288.849 213.253C279.779 232.25 270.538 250.106 261.333 266.809Z" stroke="#BBB7B3" stroke-width="15.1607" stroke-miterlimit="10"/>
</g>
<path d="M243.386 259.701L261.773 268.476L253.883 284.908L235.496 276.134L243.386 259.701Z" fill="#664724" stroke="#BBB7B3" stroke-width="15.1607" stroke-miterlimit="10"/>
<path d="M248.518 329.455C243.698 330.014 233.362 330.507 222.523 324.944C212.93 320.022 207.492 312.696 204.944 308.658C206.598 305.218 208.243 301.776 209.898 298.336C215.221 298.222 223.788 298.78 233.087 302.934C243.678 307.663 250.239 314.839 253.633 319.227C251.931 322.65 250.229 326.052 248.518 329.455Z" fill="#DFA160"/>
<mask id="mask5_2031_1154" style="mask-type:luminance" maskUnits="userSpaceOnUse" x="193" y="276" width="49" height="31">
<path d="M193.134 276.714H241.91V306.214H193.134V276.714Z" fill="white"/>
</mask>
<g mask="url(#mask5_2031_1154)">
<path d="M240.351 279.104C238.563 280.27 236.633 281.389 234.55 282.451C222.086 288.782 209.754 289.824 200.837 289.511C200.247 289.748 198.127 290.686 196.862 293.084C195.427 295.805 196.148 298.403 196.311 298.934C199.742 300.497 203.175 302.061 206.608 303.616" stroke="#BBB7B3" stroke-width="15.1607" stroke-miterlimit="10"/>
</g>
<mask id="mask6_2031_1154" style="mask-type:luminance" maskUnits="userSpaceOnUse" x="225" y="280" width="56" height="57">
<path d="M225.983 280.256H280.045V336.928H225.983V280.256Z" fill="white"/>
</mask>
<g mask="url(#mask6_2031_1154)">
<mask id="mask7_2031_1154" style="mask-type:luminance" maskUnits="userSpaceOnUse" x="226" y="280" width="55" height="57">
<path d="M226.367 298.779L249.415 280.279L280.002 318.156L256.954 336.655L226.367 298.779Z" fill="white"/>
</mask>
<g mask="url(#mask7_2031_1154)">
<path d="M248.519 282.998C248.737 285.112 249.061 287.322 249.544 289.596C252.417 303.245 259.338 313.473 265.166 320.203C265.347 320.81 265.946 323.047 264.871 325.531C263.645 328.346 261.154 329.416 260.651 329.626C257.275 327.939 253.909 326.25 250.535 324.573" stroke="#BBB7B3" stroke-width="15.1607" stroke-miterlimit="10"/>
</g>
</g>
<path d="M294.25 176.683C294.175 182.133 293.234 206.845 271.517 236.25C265.099 244.94 236.51 281.606 197.709 284.629C185.662 285.567 167.751 283.643 164.736 274.232C164.117 272.306 163.805 269.066 161.856 261.586C160.62 256.857 159.421 253.064 158.604 250.61C158.604 250.61 155 245.908 169.081 226.22C183.162 206.533 189.256 169.423 189.256 169.423C189.959 161.916 193.04 130.947 199.478 113.809C200.258 111.725 201.568 108.567 204.251 105.554C214.919 96.6244 222.637 97.2963 224.987 97.6666C239.78 99.9802 251.969 122.938 248.679 154.702C248.062 157.762 247.662 161.916 249.707 164.171C256.209 171.337 278.868 149.574 289.363 157.271C294.383 160.958 294.354 169.726 294.25 176.683Z" fill="#F6C19E"/>
<path d="M175.783 268.743C171 270.516 164.069 273.832 158.288 280.146C148.762 290.535 148.096 302.801 147.516 318.099C147.088 329.001 147.697 345.077 153.04 364.252C154.03 365.731 156.445 368.907 160.931 371.125C165.686 373.476 170.116 373.446 171.99 373.333C229.17 372.888 286.34 372.433 343.527 371.996C345.058 371.693 348.196 370.85 351.181 368.423C354.53 365.702 355.822 362.509 356.298 361.116C360.1 343.151 360.66 328.063 360.395 317.36C359.739 291.303 353.987 283.075 350.403 279.065C345.858 273.975 340.666 270.98 337.006 269.264L175.783 268.743Z" fill="#664724"/>
<path d="M159.581 213.149C223.426 213.376 287.271 213.603 351.116 213.831C350.973 215.423 350.668 217.187 350.108 219.054C347.711 226.864 342.11 231.566 339.192 233.652C339.116 245.908 339.049 258.164 338.964 270.412H170.705C170.705 258.278 170.705 246.165 170.705 234.03C167.586 231.168 163.024 226.069 160.733 218.523C160.153 216.628 159.801 214.818 159.581 213.149Z" fill="#DFA160"/>
<path d="M36.2185 4.81131C36.1241 26.4902 36.0298 48.1769 35.9434 69.8557C35.9434 69.8557 37.1499 72.6807 40.4216 72.5005C43.7012 72.3202 115.066 72.5005 115.066 72.5005C115.066 72.5005 118.167 72.1498 118.167 68.4433C118.167 64.7367 118.167 6.65086 118.167 6.65086C118.043 6.17677 117.776 5.45584 117.206 4.81131C115.923 3.36945 113.897 3.24798 112.909 3.2186C109.696 3.1324 79.8495 3.05796 38.938 3.1422C38.7572 3.11477 37.8828 2.99135 37.0929 3.58886C36.5132 4.01397 36.2951 4.58406 36.2185 4.81131Z" fill="#C37F38"/>
<mask id="mask8_2031_1154" style="mask-type:luminance" maskUnits="userSpaceOnUse" x="32" y="0" width="90" height="76">
<path d="M32.8149 0H121.35V75.637H32.8149V0Z" fill="white"/>
</mask>
<g mask="url(#mask8_2031_1154)">
<path d="M34.9076 73.0984C34.2042 72.3774 33.7188 71.5997 33.4516 70.9649C33.3003 70.6045 33.2236 70.2264 33.2236 69.8365L33.4987 4.7921C33.4987 4.49824 33.5479 4.19458 33.6422 3.92032C33.9841 2.8879 34.6306 1.97694 35.4775 1.34221C36.8569 0.309785 38.3209 0.2804 39.0911 0.356802C80.1067 0.2804 109.753 0.347007 112.975 0.431246C113.993 0.460632 117.082 0.537035 119.202 2.92512C119.943 3.74988 120.476 4.75487 120.78 5.90092C120.847 6.13796 120.877 6.3848 120.877 6.64144V68.4338C120.877 72.9847 117.577 75.0025 115.361 75.2592C115.257 75.269 115.162 75.2788 115.056 75.2788C90.3935 75.222 43.0939 75.1358 40.5649 75.2788C37.9966 75.4198 36.124 74.3404 34.9076 73.0984ZM38.6628 69.0686C38.9379 69.4016 39.4507 69.7699 40.278 69.7229C43.5203 69.5525 109.267 69.7053 114.801 69.7229C115.371 69.5427 115.457 68.9843 115.457 68.4436V7.09594C115.39 6.9353 115.304 6.80208 115.21 6.68846C114.63 6.05372 113.288 6.01454 112.842 5.99691C109.656 5.91071 80.0026 5.83431 38.9477 5.92051H38.9379L38.6628 69.0686Z" fill="#C37F38"/>
</g>
<path d="M44.6815 75.1921C41.3901 75.4762 36.6093 76.2735 31.2841 78.5578C31.2841 78.5578 22.4887 82.3211 15.9295 89.5344C6.20274 100.217 4.54821 114.881 4.15914 122C2.87599 145.602 2.29435 236.779 4.15914 360.936C4.15914 360.936 12.5163 383.627 77.3026 383.012C142.087 382.395 145.178 367.067 148.876 361.551C152.574 356.034 148.876 118.113 148.876 118.113C148.648 113.401 147.383 100.701 138.047 89.7988C136.041 87.4578 131.315 82.0743 123.148 78.5186C118.88 76.6614 115.029 75.8935 112.309 75.5526C89.7568 75.4194 67.2241 75.3058 44.6815 75.1921Z" fill="#F6C19E"/>
<path d="M5.66068 367.618C2.64636 364.527 1.72477 362.215 1.6108 361.911C1.49683 361.608 1.43985 361.294 1.43985 360.973C-0.318833 243.604 0.0604139 147.223 1.43985 121.837C2.21996 107.591 6.53511 95.7623 13.9432 87.6283C20.8266 80.0644 29.8578 76.1502 30.239 75.9876C34.7546 74.054 39.5374 72.8512 44.4519 72.4241C44.5383 72.4143 44.615 72.4143 44.6995 72.4143L112.319 72.7571C112.423 72.7571 112.537 72.765 112.642 72.7748C116.654 73.2861 120.543 74.3479 124.213 75.9504C133.123 79.8274 138.181 85.7319 140.091 87.9613C149.342 98.7577 151.272 111.392 151.596 117.97C151.596 117.999 151.596 118.037 151.596 118.066C151.606 118.664 152.527 178.248 152.983 237.737C153.916 358.953 152.166 361.561 151.12 363.124C150.873 363.504 150.598 363.968 150.283 364.509C148.373 367.816 145.178 373.342 134.577 377.807C122.579 382.859 103.316 385.541 77.3304 385.788C31.1606 386.225 12.6974 374.831 5.66068 367.618ZM6.85933 360.271C8.31344 362.926 20.2174 380.755 77.2734 380.224C135.204 379.674 142.231 367.514 145.606 361.674C145.901 361.173 146.176 360.689 146.471 360.234C148.857 350.848 147.603 210.712 146.166 118.197C145.872 112.33 144.15 101.126 136.013 91.6287C134.329 89.6657 129.861 84.4527 122.093 81.0694C118.937 79.6941 115.589 78.7753 112.138 78.3208L44.8056 77.98C40.4983 78.3679 36.305 79.4297 32.3396 81.1262C32.2629 81.1634 23.9922 84.7759 17.9262 91.4289C11.4044 98.5951 7.58246 109.221 6.87898 122.151C5.48973 147.383 5.11048 243.3 6.85933 360.271Z" fill="#F6C19E"/>
<path d="M150.093 351.636C130.213 355.409 105.986 358.422 78.3682 358.528C49.4728 358.632 24.2205 355.54 3.69405 351.636L3.58008 298.27C24.1164 302.166 49.3687 305.265 78.2523 305.161C105.865 305.056 130.089 302.052 149.979 298.27C150.028 316.052 150.065 333.844 150.093 351.636Z" fill="#DFA160"/>
<path d="M1.78139 353.599C1.28818 353.095 0.983599 352.394 0.983599 351.636L0.869629 298.269C0.869629 297.444 1.22136 296.657 1.8482 296.128C2.46718 295.597 3.28462 295.378 4.08241 295.53C28.4898 300.166 53.4375 302.46 78.2516 302.373C102.089 302.279 126.048 299.985 149.495 295.53C150.283 295.378 151.1 295.597 151.719 296.128C152.336 296.657 152.698 297.435 152.698 298.259L152.812 351.626C152.812 352.972 151.88 354.12 150.587 354.365C126.828 358.878 102.535 361.21 78.3754 361.294C53.2272 361.39 27.9278 359.059 3.19816 354.365C2.64599 354.261 2.15278 353.987 1.78139 353.599ZM6.3068 301.596L6.41291 349.314C30.105 353.663 54.3021 355.826 78.3675 355.74C101.443 355.656 124.651 353.493 147.375 349.314L147.268 301.596C124.535 305.72 101.336 307.853 78.2614 307.937C54.2078 308.023 30.0205 305.89 6.3068 301.596Z" fill="#DFA160"/>
<path d="M148.277 169.593C151.12 160.938 159.212 155.014 168.291 154.92C177.542 154.816 185.871 160.777 188.772 169.593C190.758 175.65 188.732 182.019 188.115 184.049C186.384 189.756 184.036 190.996 183.58 195.272C183.238 198.438 183.969 202.96 188.772 208.835C174.757 208.901 160.743 208.958 146.729 209.025C152.205 202.903 152.993 198.285 152.641 195.157C152.176 191.006 149.684 189.319 148.116 184.409C146.337 178.816 147.165 173.48 148.277 169.593Z" fill="#DFA160"/>
<path d="M205.742 251.481C196.51 253.899 183.845 256.24 168.709 256.193C153.459 256.146 140.727 253.681 131.478 251.168C132.732 246.582 133.854 241.006 134.302 234.608C135.033 224.041 133.655 215.111 132.105 208.684C155.921 208.684 179.729 208.684 203.547 208.684C201.959 213.869 200.094 222.335 201.035 232.741C201.758 240.685 203.879 247.083 205.742 251.481Z" fill="#664724"/>
<path d="M131.478 251.168C119.868 271.131 105.711 303.085 106.377 342.744C106.5 350.29 107.157 357.409 108.155 364.052C108.564 367.105 110.132 375.883 117.501 383.58C123.946 390.319 131.315 392.576 134.415 393.344C142.022 396.253 154.409 399.931 170.031 399.997C186.119 400.064 198.84 396.281 206.541 393.344C209.697 392.433 215.106 390.413 220.345 385.798C227.419 379.56 230.072 372.196 231.033 368.934C231.937 360.375 232.345 351.011 231.927 340.973C230.282 302.127 216.904 271.301 205.741 251.491C180.984 251.378 156.235 251.274 131.478 251.168Z" fill="#C37F38"/>
<path d="M153.364 357.21C174.718 380.642 146.785 370.016 144.304 353.76C146.793 370.016 121.675 385.675 136.155 358.84C121.684 385.675 123.767 357.361 136.831 349.656C123.758 357.361 100.197 339.692 129.187 343.919C100.207 339.692 129.423 332.812 138.666 341.684C129.415 332.812 139.967 306.223 142.087 333.057C139.967 306.223 155.931 330.29 147.269 340.867C155.931 330.29 186.013 331.53 157.035 341.275C186.013 331.54 166.675 353.286 150.749 348.337C166.685 353.286 174.718 380.632 153.364 357.21Z" fill="#F6C19E"/>
</svg>
