<svg width="456" height="420" viewBox="0 0 456 420" fill="none" xmlns="http://www.w3.org/2000/svg">
<path d="M178.386 0.0256241C158.689 0.370661 107.797 4.43979 87.2753 56.354C66.7557 108.268 65.8025 130.406 72.026 154.188C78.2473 177.97 66.7557 184.705 59.3694 204.296C51.9807 223.888 56.086 250.95 63.4724 273.909C70.8587 296.87 240.765 212.819 240.765 212.819C240.765 212.819 258.724 179.456 235.02 142.592C210.798 104.921 261.195 87.1359 257.64 49.2278C254.72 18.0664 225.17 -0.793262 178.386 0.0256241Z" fill="#212121"/>
<mask id="mask0_2031_721" style="mask-type:luminance" maskUnits="userSpaceOnUse" x="0" y="6" width="456" height="414">
<path d="M0.479248 6.16748H455.463V419.365H0.479248V6.16748Z" fill="white"/>
</mask>
<g mask="url(#mask0_2031_721)">
<path d="M455.405 388.095V419.462H0.476685C0.476685 419.462 30.0266 293.999 50.3412 273.09C68.6298 254.265 96.8926 250.435 118.517 235.709C120.917 234.076 123.233 232.309 125.445 230.372C147.607 210.974 149.453 175.919 135.295 134.098C135.295 134.098 102.667 139.345 102.052 107.201C101.435 75.0576 127.292 95.9668 127.292 95.9668C127.292 95.9668 148.224 31.8015 195.625 18.0667L184.543 6.17676L205.532 18.0667C205.532 18.0667 246.719 32.3328 246.102 107.201C245.487 182.07 213.595 176.535 205.532 180.225C199.318 183.068 197.17 206.749 219.359 206.737C225.951 206.735 234.691 204.644 246.109 199.289C295.966 175.919 337.213 202.365 388.307 279.241C439.399 356.115 451.024 353.656 455.405 388.095Z" fill="#F6C19E"/>
</g>
<path d="M207.934 179.824C204.899 179.921 201.858 179.85 198.83 179.613C197.336 179.493 195.844 179.337 194.356 179.139C194.596 179.171 194.354 179.139 194.294 179.13C194.204 179.118 194.115 179.104 194.025 179.093C193.843 179.065 193.661 179.04 193.481 179.015C193.083 178.955 192.687 178.895 192.289 178.828C191.568 178.713 190.847 178.587 190.129 178.451C184.223 177.338 178.444 175.601 172.9 173.28C173.109 173.368 172.888 173.276 172.838 173.253C172.755 173.218 172.672 173.184 172.587 173.147C172.421 173.075 172.255 173.002 172.089 172.93C171.723 172.772 171.359 172.611 170.998 172.445C170.342 172.148 169.685 171.84 169.036 171.525C167.691 170.874 166.365 170.184 165.057 169.459C162.476 168.029 159.971 166.453 157.565 164.744C156.969 164.321 156.382 163.888 155.799 163.451C155.656 163.343 155.516 163.235 155.376 163.129C155.33 163.095 155.143 162.95 155.323 163.088C155.251 163.035 155.182 162.98 155.111 162.924C154.818 162.694 154.526 162.462 154.236 162.23C153.105 161.321 152 160.378 150.925 159.405C148.763 157.443 146.718 155.35 144.819 153.132C144.351 152.587 143.893 152.033 143.444 151.472C143.235 151.212 143.03 150.952 142.825 150.689C142.611 150.416 142.965 150.876 142.753 150.6C142.71 150.542 142.668 150.487 142.627 150.432C142.498 150.264 142.371 150.096 142.247 149.928C141.388 148.78 140.566 147.603 139.788 146.397C138.206 143.954 136.795 141.401 135.579 138.76C135.432 138.438 135.287 138.119 135.144 137.797C135.079 137.652 135.017 137.507 134.955 137.36C134.918 137.279 134.884 137.196 134.851 137.118C134.955 137.364 134.819 137.042 134.808 137.012C134.566 136.437 134.004 135.961 133.334 136.177C132.779 136.354 132.238 137.031 132.498 137.649C134.817 143.193 137.9 148.341 141.651 153.04C145.369 157.701 149.714 161.818 154.461 165.42C159.235 169.038 164.431 172.093 169.888 174.559C175.485 177.087 181.341 179.035 187.345 180.326C193.364 181.621 199.53 182.288 205.687 182.263C206.435 182.258 207.186 182.244 207.936 182.221C208.563 182.2 209.164 181.685 209.134 181.025C209.104 180.39 208.604 179.804 207.934 179.824Z" fill="#212121"/>
<path d="M185.158 89.5097C185.158 90.0157 185.13 90.5149 185.075 91.0094C185.02 91.504 184.937 91.9847 184.829 92.4517C184.721 92.9186 184.589 93.3603 184.433 93.7812C184.274 94.1999 184.097 94.5886 183.896 94.9452C183.696 95.3017 183.477 95.6214 183.242 95.9021C183.008 96.1827 182.759 96.4196 182.499 96.6128C182.236 96.8061 181.967 96.951 181.691 97.0499C181.412 97.1488 181.131 97.1971 180.848 97.1971C180.565 97.1971 180.286 97.1488 180.007 97.0499C179.731 96.951 179.462 96.8061 179.199 96.6128C178.939 96.4196 178.69 96.1827 178.456 95.9021C178.218 95.6214 178.002 95.3017 177.802 94.9452C177.601 94.5886 177.422 94.1999 177.265 93.7812C177.109 93.3603 176.975 92.9186 176.867 92.4517C176.759 91.9847 176.678 91.504 176.623 91.0094C176.568 90.5149 176.54 90.0157 176.54 89.5097C176.54 89.0059 176.568 88.5045 176.623 88.0099C176.678 87.5154 176.759 87.0346 176.867 86.5677C176.975 86.103 177.109 85.6591 177.265 85.2404C177.424 84.8195 177.601 84.4307 177.802 84.0742C178.002 83.7177 178.218 83.3979 178.456 83.1196C178.69 82.839 178.939 82.602 179.199 82.4088C179.462 82.2156 179.731 82.0684 180.007 81.9718C180.286 81.8729 180.565 81.8223 180.848 81.8223C181.131 81.8223 181.412 81.8729 181.691 81.9718C181.967 82.0684 182.236 82.2156 182.499 82.4088C182.759 82.602 183.008 82.839 183.242 83.1196C183.477 83.3979 183.696 83.7177 183.896 84.0742C184.097 84.4307 184.274 84.8195 184.433 85.2404C184.589 85.6591 184.721 86.103 184.829 86.5677C184.937 87.0346 185.02 87.5154 185.075 88.0099C185.13 88.5045 185.158 89.0059 185.158 89.5097Z" fill="#212121"/>
<path d="M162.051 70.4177C162.562 69.9185 163.103 69.4493 163.667 69.0122C163.561 69.095 163.453 69.1778 163.345 69.2606C164.671 68.2439 166.124 67.4066 167.662 66.7557C167.533 66.8086 167.408 66.8615 167.279 66.9167C169.016 66.1875 170.844 65.6976 172.709 65.4491C172.568 65.4675 172.428 65.4859 172.285 65.5043C174.171 65.2559 176.086 65.2536 177.972 65.5043C177.832 65.4836 177.691 65.4652 177.548 65.4468C179.314 65.6861 181.048 66.1461 182.695 66.8362C182.566 66.7833 182.439 66.7304 182.312 66.6752C183.454 67.1605 184.546 67.754 185.57 68.4533C185.9 68.6764 186.429 68.7178 186.802 68.6143C187.173 68.5131 187.573 68.2278 187.755 67.8805C187.953 67.5102 188.05 67.0639 187.917 66.6522C187.785 66.2404 187.544 65.9437 187.184 65.6976C183.984 63.51 180.143 62.3599 176.289 62.1552C172.416 61.9505 168.504 62.7671 165.025 64.4669C163.105 65.4054 161.323 66.666 159.794 68.1611C159.196 68.7431 159.163 69.838 159.794 70.4154C160.437 71.0088 161.413 71.041 162.051 70.4177Z" fill="#212121"/>
<path d="M237.779 86.7423C237.779 87.2461 237.751 87.7476 237.698 88.2421C237.643 88.7367 237.56 89.2174 237.452 89.6844C237.343 90.149 237.21 90.593 237.053 91.0116C236.897 91.4325 236.717 91.8213 236.517 92.1778C236.317 92.5344 236.1 92.8518 235.865 93.1324C235.63 93.4131 235.382 93.65 235.119 93.8432C234.859 94.0364 234.59 94.1836 234.311 94.2802C234.035 94.3792 233.754 94.4298 233.471 94.4298C233.188 94.4298 232.907 94.3792 232.63 94.2802C232.352 94.1836 232.082 94.0364 231.822 93.8432C231.56 93.65 231.311 93.4131 231.076 93.1324C230.841 92.8518 230.623 92.5344 230.425 92.1778C230.224 91.8213 230.045 91.4325 229.888 91.0116C229.729 90.593 229.598 90.149 229.49 89.6844C229.382 89.2174 229.299 88.7367 229.243 88.2421C229.188 87.7476 229.161 87.2461 229.161 86.7423C229.161 86.2363 229.188 85.7371 229.243 85.2426C229.299 84.748 229.382 84.2673 229.49 83.8003C229.598 83.3334 229.729 82.8917 229.888 82.4708C230.045 82.0522 230.224 81.6634 230.425 81.3069C230.623 80.9503 230.841 80.6306 231.076 80.35C231.311 80.0693 231.56 79.8324 231.822 79.6392C232.082 79.446 232.352 79.3011 232.63 79.2021C232.907 79.1032 233.188 79.0549 233.471 79.0549C233.754 79.0549 234.035 79.1032 234.311 79.2021C234.59 79.3011 234.859 79.446 235.119 79.6392C235.382 79.8324 235.63 80.0693 235.865 80.35C236.1 80.6306 236.317 80.9503 236.517 81.3069C236.717 81.6634 236.897 82.0522 237.053 82.4708C237.21 82.8917 237.343 83.3334 237.452 83.8003C237.56 84.2673 237.643 84.748 237.698 85.2426C237.751 85.7371 237.779 86.2363 237.779 86.7423Z" fill="#212121"/>
<path d="M254.524 65.3963C251.764 62.6981 248.213 60.8349 244.458 59.97C240.684 59.1005 236.673 59.1511 232.948 60.2277C230.892 60.8211 228.9 61.7274 227.137 62.935C226.789 63.172 226.517 63.4733 226.402 63.8896C226.296 64.2692 226.344 64.7775 226.563 65.118C226.784 65.4584 227.111 65.7574 227.516 65.8517C227.919 65.9415 228.396 65.9323 228.748 65.6907C229.773 64.9892 230.864 64.398 232.006 63.9126C231.88 63.9678 231.753 64.0185 231.626 64.0737C233.27 63.3813 235.002 62.9235 236.77 62.6843C236.63 62.7027 236.489 62.7211 236.346 62.7395C238.232 62.4911 240.148 62.4934 242.034 62.7418C241.893 62.7234 241.753 62.705 241.61 62.6843C243.475 62.935 245.305 63.425 247.039 64.1542C246.912 64.099 246.786 64.0461 246.659 63.9932C248.195 64.6418 249.65 65.4791 250.974 66.4981C250.866 66.4153 250.758 66.3325 250.652 66.2474C251.216 66.6844 251.757 67.1537 252.268 67.6551C252.864 68.2394 253.937 68.2946 254.524 67.6551C255.105 67.0203 255.164 66.0197 254.524 65.3963Z" fill="#212121"/>
<path d="M210.98 78.7515C211.222 82.0201 211.461 85.2887 211.703 88.5597C211.943 91.8145 212.182 95.0717 212.421 98.3288C212.557 100.169 212.691 102.009 212.827 103.849C212.859 104.277 213.034 104.657 213.418 104.882C213.78 105.094 214.263 105.105 214.627 104.882C214.966 104.673 215.318 104.491 215.686 104.337C215.59 104.376 215.495 104.418 215.401 104.459C216.048 104.19 216.727 104.01 217.42 103.914C217.317 103.928 217.208 103.944 217.102 103.958C217.876 103.856 218.657 103.856 219.43 103.96C219.324 103.946 219.218 103.932 219.112 103.918C219.865 104.022 220.6 104.22 221.3 104.514C221.205 104.475 221.111 104.434 221.014 104.392C221.468 104.585 221.903 104.816 222.315 105.087C222.41 105.149 222.502 105.213 222.594 105.28C222.631 105.305 222.838 105.464 222.654 105.322C222.469 105.181 222.677 105.342 222.711 105.37C222.893 105.519 223.07 105.68 223.236 105.846C223.404 106.014 223.563 106.189 223.715 106.373C223.752 106.416 223.786 106.462 223.823 106.506C223.57 106.212 223.736 106.391 223.791 106.467C223.865 106.566 223.934 106.667 224.001 106.768C224.272 107.178 224.505 107.613 224.698 108.066C224.659 107.969 224.62 107.875 224.579 107.781C224.88 108.496 225.083 109.25 225.186 110.021C225.173 109.915 225.159 109.809 225.145 109.704C225.242 110.458 225.244 111.219 225.145 111.972C225.161 111.866 225.175 111.76 225.189 111.654C225.092 112.367 224.905 113.062 224.627 113.727C224.666 113.63 224.707 113.538 224.749 113.441C224.546 113.908 224.302 114.357 224.012 114.773C223.952 114.861 223.655 115.229 223.934 114.888C223.858 114.983 223.782 115.075 223.704 115.167C223.54 115.355 223.367 115.535 223.186 115.707C223.011 115.873 222.829 116.027 222.64 116.179C222.483 116.308 222.905 115.981 222.663 116.163C222.617 116.195 222.573 116.227 222.527 116.259C222.421 116.333 222.313 116.406 222.205 116.478C221.781 116.749 221.337 116.979 220.874 117.175C220.968 117.136 221.063 117.097 221.159 117.055C220.452 117.347 219.716 117.55 218.96 117.653C219.064 117.637 219.172 117.623 219.278 117.609C218.56 117.704 217.835 117.706 217.116 117.612C217.222 117.628 217.328 117.642 217.434 117.655C216.992 117.596 216.557 117.497 216.133 117.361C215.537 117.17 214.8 117.584 214.659 118.196C214.512 118.849 214.857 119.463 215.495 119.668C217.812 120.407 220.347 120.094 222.513 119.045C224.698 117.989 226.388 116.08 227.155 113.78C227.933 111.443 227.689 108.846 226.662 106.626C225.624 104.383 223.632 102.741 221.3 101.97C218.965 101.2 216.359 101.372 214.144 102.426C213.895 102.543 213.656 102.676 213.421 102.821C214.022 103.164 214.623 103.509 215.224 103.854C214.982 100.583 214.742 97.3144 214.503 94.0458C214.263 90.7886 214.024 87.5338 213.785 84.2743C213.649 82.4364 213.515 80.5963 213.379 78.7561C213.354 78.434 213.26 78.1442 213.027 77.9096C212.82 77.7025 212.479 77.5461 212.182 77.5599C211.57 77.5829 210.932 78.0821 210.98 78.7515Z" fill="#AA7B57"/>
<path d="M229.161 129.214L170.793 126.102C170.793 126.102 180.233 145.783 203.626 144.55C227.017 143.324 229.161 129.214 229.161 129.214Z" fill="#FFFCFA"/>
<path d="M110.09 107.169C110.549 106.828 111.046 106.548 111.571 106.324C111.474 106.364 111.38 106.403 111.285 106.444C111.898 106.189 112.54 106.019 113.199 105.929C113.093 105.943 112.987 105.956 112.881 105.97C113.671 105.867 114.47 105.876 115.26 105.977C115.154 105.963 115.048 105.95 114.942 105.933C115.918 106.067 116.869 106.338 117.778 106.72C117.682 106.681 117.587 106.642 117.493 106.6C118.08 106.851 118.651 107.146 119.194 107.486C119.464 107.654 119.724 107.831 119.98 108.017C120.042 108.063 120.099 108.107 120.159 108.153C120.279 108.243 119.906 107.951 120.072 108.086C120.099 108.109 120.129 108.132 120.159 108.155C120.29 108.261 120.417 108.367 120.541 108.477C121.013 108.892 121.451 109.34 121.849 109.823C121.895 109.878 121.941 109.936 121.987 109.993C122.093 110.129 121.916 109.904 121.914 109.899C121.941 109.931 121.967 109.97 121.992 110.005C122.112 110.164 122.227 110.322 122.34 110.486C122.549 110.789 122.752 111.102 122.938 111.419C123.373 112.149 123.749 112.91 124.078 113.69C124.039 113.593 124 113.501 123.958 113.405C125.031 115.969 125.598 118.707 126.042 121.439C126.169 122.215 126.284 122.994 126.397 123.772C126.438 124.048 126.719 124.351 126.949 124.487C127.205 124.637 127.585 124.699 127.87 124.607C128.16 124.512 128.441 124.335 128.586 124.057C128.747 123.753 128.757 123.473 128.706 123.135C128.384 120.929 128.047 118.718 127.504 116.551C126.951 114.35 126.173 112.169 125.008 110.212C124.444 109.266 123.79 108.356 123.033 107.553C122.335 106.812 121.534 106.163 120.686 105.602C118.996 104.484 117.06 103.78 115.048 103.56C113.127 103.346 111.108 103.723 109.446 104.728C109.252 104.843 109.066 104.97 108.884 105.103C108.626 105.296 108.423 105.496 108.334 105.818C108.255 106.106 108.29 106.485 108.456 106.741C108.773 107.235 109.552 107.567 110.09 107.169Z" fill="#AA7B57"/>
<path d="M125.644 115.158C124.801 113.557 123.224 112.444 121.506 111.956C119.736 111.454 117.841 111.602 116.169 112.358C115.209 112.791 114.431 113.486 113.795 114.311C113.618 114.541 113.602 114.971 113.673 115.234C113.749 115.512 113.963 115.813 114.224 115.949C114.502 116.094 114.838 116.168 115.147 116.069C115.465 115.968 115.66 115.781 115.861 115.519C115.584 115.88 115.833 115.563 115.911 115.473C115.983 115.392 116.056 115.314 116.135 115.241C116.211 115.165 116.289 115.093 116.369 115.024C116.411 114.988 116.452 114.955 116.494 114.921C116.676 114.771 116.254 115.096 116.413 114.983C116.761 114.735 117.129 114.525 117.521 114.36C117.424 114.399 117.332 114.438 117.235 114.479C117.733 114.275 118.253 114.139 118.785 114.065C118.679 114.079 118.573 114.093 118.467 114.109C119.054 114.031 119.644 114.033 120.228 114.109C120.125 114.093 120.017 114.079 119.911 114.065C120.496 114.143 121.067 114.295 121.608 114.521C121.513 114.482 121.419 114.442 121.322 114.401C121.596 114.516 121.863 114.652 122.119 114.806C122.241 114.882 122.363 114.962 122.48 115.045C122.51 115.068 122.54 115.091 122.57 115.112C122.681 115.192 122.319 114.912 122.455 115.024C122.512 115.07 122.57 115.119 122.628 115.169C122.846 115.363 123.042 115.572 123.229 115.793C123.353 115.938 123.07 115.579 123.141 115.675C123.162 115.708 123.187 115.735 123.21 115.767C123.254 115.829 123.298 115.894 123.339 115.958C123.424 116.089 123.503 116.223 123.574 116.359C123.866 116.915 124.686 117.129 125.211 116.789C125.78 116.43 125.955 115.751 125.644 115.158Z" fill="#AA7B57"/>
<mask id="mask1_2031_721" style="mask-type:luminance" maskUnits="userSpaceOnUse" x="0" y="191" width="456" height="229">
<path d="M0.479248 191.07H455.463V419.365H0.479248V191.07Z" fill="white"/>
</mask>
<g mask="url(#mask1_2031_721)">
<path d="M455.405 388.095V419.461H0.476685C0.476685 419.461 30.0266 293.999 50.3412 273.09C68.6298 254.265 96.8926 250.435 118.517 235.709C118.517 235.709 140.177 287.092 160.922 309.202C160.922 309.202 192.908 296.141 219.359 206.737C225.951 206.735 234.691 204.644 246.109 199.289C295.966 175.918 337.213 202.364 388.307 279.241C439.399 356.115 451.024 353.656 455.405 388.095Z" fill="#C37F38"/>
</g>
<path d="M62.959 276.901C65.9867 285.396 68.7014 293.999 71.089 302.692C73.4882 311.428 75.5627 320.252 77.3034 329.142C79.0325 337.968 80.4416 346.859 81.5077 355.791C82.576 364.741 83.3151 373.733 83.7181 382.74C84.1233 391.787 84.1924 400.852 83.9184 409.906C83.8838 411.022 83.8447 412.137 83.8009 413.253C83.7411 414.792 86.1356 414.79 86.1955 413.253C86.5501 404.202 86.5708 395.139 86.2485 386.085C85.9261 377.033 85.2653 367.993 84.2706 358.988C83.2714 349.964 81.9452 340.977 80.2874 332.047C78.625 323.1 76.6288 314.214 74.3033 305.415C71.987 296.656 69.346 287.986 66.3782 279.425C66.0121 278.369 65.6437 277.318 65.2684 276.267C64.7549 274.827 62.4409 275.448 62.959 276.901Z" fill="#212121"/>
<path d="M155.422 413.253C153.736 399.826 153.147 386.273 153.667 372.752C154.188 359.215 155.813 345.725 158.539 332.452C160.084 324.93 161.984 317.487 164.217 310.142C163.833 310.436 163.448 310.726 163.064 311.021C165.84 311.074 168.707 311.798 171.59 312.728C178.534 314.968 184.808 319.016 189.887 324.233C191.481 325.873 192.901 327.635 194.315 329.43C194.81 330.062 195.344 330.663 195.947 331.192C197.032 332.142 198.31 332.924 199.74 333.204C202.772 333.802 205.556 332.231 207.718 330.235C210.762 327.421 212.988 323.707 214.892 320.065C217.545 314.993 219.649 309.629 221.493 304.214C226.114 290.636 229.142 276.48 231.106 262.288C233.139 247.596 234.111 232.61 232.826 217.806C232.681 216.14 232.504 214.477 232.292 212.819C232.211 212.172 231.801 211.632 231.095 211.623C230.512 211.618 229.817 212.179 229.9 212.819C231.714 227.145 231.138 241.758 229.501 256.07C227.86 270.426 225.046 284.731 220.807 298.553C219.067 304.233 217.082 309.861 214.591 315.26C212.749 319.251 210.591 323.387 207.794 326.681C207.241 327.334 206.654 327.962 206.025 328.542C205.374 329.144 205.109 329.367 204.414 329.814C204.142 329.991 203.861 330.156 203.573 330.304C203.11 330.541 203.235 330.492 202.85 330.623C202.576 330.718 202.3 330.801 202.014 330.863C201.879 330.893 201.738 330.916 201.598 330.936C201.962 330.883 201.432 330.945 201.335 330.948C201.059 330.959 200.785 330.945 200.509 330.92C200.391 330.911 200.679 330.973 200.334 330.888C200.168 330.849 200.004 330.814 199.841 330.766C199.705 330.727 199.569 330.679 199.433 330.63C199.136 330.524 199.532 330.692 199.233 330.545C198.929 330.396 198.632 330.23 198.349 330.044C197.941 329.775 198.054 329.857 197.718 329.568C197.414 329.308 197.126 329.029 196.855 328.737C195.89 327.709 195.195 326.649 194.232 325.489C186.756 316.509 175.548 309.544 163.678 308.661C163.471 308.645 163.266 308.631 163.059 308.626C162.525 308.615 162.057 309.006 161.905 309.505C157.936 322.556 155.058 335.916 153.264 349.439C151.464 362.974 150.778 376.656 151.215 390.303C151.461 397.977 152.072 405.637 153.025 413.253C153.218 414.759 155.613 414.778 155.422 413.253Z" fill="#212121"/>
<path d="M299.803 243.828C302.414 254.609 304.672 265.473 306.565 276.407C308.46 287.337 309.991 298.332 311.154 309.364C312.314 320.396 313.115 331.465 313.548 342.55C313.983 353.635 314.053 364.734 313.755 375.821C313.458 386.908 312.798 397.988 311.766 409.032C311.635 410.439 311.497 411.847 311.354 413.253C311.2 414.782 313.592 414.773 313.749 413.253C314.874 402.163 315.637 391.037 316.026 379.897C316.413 368.757 316.433 357.605 316.081 346.463C315.731 335.323 315.013 324.19 313.926 313.098C312.841 302.006 311.393 290.949 309.583 279.951C307.781 269.007 305.619 258.122 303.095 247.318C302.773 245.942 302.446 244.567 302.114 243.191C301.748 241.698 299.439 242.331 299.803 243.828Z" fill="#212121"/>
<path d="M129.171 337.097C129.162 337.097 129.155 337.097 129.144 337.097C127.267 337.083 125.549 335.546 123.572 332.11C117.238 321.115 111.638 304.127 106.934 281.617C103.437 264.892 101.772 251.196 101.753 251.061C101.675 250.405 102.143 249.807 102.799 249.729C103.457 249.651 104.051 250.12 104.13 250.773C104.146 250.909 105.803 264.519 109.28 281.148C113.867 303.087 119.526 320.298 125.644 330.918C127.536 334.205 128.66 334.702 129.162 334.704C129.164 334.704 129.167 334.704 129.169 334.704C130.504 334.704 132.321 331.663 134.244 328.443C136.629 324.445 139.599 319.47 144.087 315.477C149.442 310.71 155.654 308.465 163.087 308.626C163.747 308.64 164.272 309.188 164.259 309.848C164.245 310.499 163.711 311.019 163.061 311.019C163.054 311.019 163.043 311.019 163.036 311.019C147.635 310.694 140.81 322.113 136.3 329.669C133.728 333.98 131.865 337.097 129.171 337.097Z" fill="#212121"/>
<path d="M312.273 251.231L254.93 241.473C248.225 240.332 243.715 233.979 244.859 227.278L265.528 106.023C266.67 99.3251 273.032 94.8189 279.737 95.9598L337.077 105.717C343.784 106.856 348.293 113.212 347.151 119.912L326.481 241.167C325.339 247.866 318.978 252.372 312.273 251.231Z" fill="#212121"/>
<path d="M278.834 136.281C274.98 135.625 272.387 131.972 273.043 128.122L275.659 112.777C276.315 108.926 279.971 106.336 283.826 106.992C287.68 107.647 290.273 111.3 289.616 115.151L287.001 130.495C286.345 134.344 282.688 136.936 278.834 136.281Z" fill="#FFFCFA"/>
<path d="M287.471 115.746C287.471 116.084 287.438 116.418 287.372 116.749C287.307 117.078 287.21 117.4 287.079 117.711C286.95 118.023 286.794 118.318 286.605 118.598C286.418 118.879 286.204 119.137 285.967 119.376C285.728 119.615 285.467 119.827 285.189 120.015C284.908 120.202 284.611 120.36 284.3 120.489C283.989 120.618 283.667 120.715 283.335 120.781C283.006 120.846 282.672 120.88 282.334 120.88C281.998 120.88 281.661 120.846 281.332 120.781C281.001 120.715 280.681 120.618 280.367 120.489C280.057 120.36 279.76 120.202 279.479 120.015C279.2 119.827 278.94 119.615 278.7 119.376C278.463 119.137 278.249 118.879 278.063 118.598C277.874 118.318 277.717 118.023 277.588 117.711C277.459 117.4 277.36 117.078 277.296 116.749C277.229 116.418 277.197 116.084 277.197 115.746C277.197 115.41 277.229 115.077 277.296 114.745C277.36 114.414 277.457 114.095 277.588 113.782C277.717 113.471 277.874 113.174 278.063 112.896C278.249 112.615 278.463 112.356 278.7 112.116C278.94 111.879 279.2 111.665 279.479 111.479C279.76 111.293 280.057 111.134 280.367 111.005C280.681 110.876 281.001 110.778 281.332 110.713C281.661 110.646 281.998 110.614 282.334 110.614C282.672 110.614 283.006 110.646 283.335 110.713C283.667 110.778 283.989 110.876 284.3 111.005C284.611 111.134 284.908 111.293 285.189 111.479C285.47 111.665 285.728 111.879 285.967 112.116C286.204 112.356 286.418 112.615 286.605 112.896C286.794 113.174 286.95 113.471 287.079 113.782C287.21 114.095 287.307 114.414 287.372 114.745C287.438 115.077 287.471 115.41 287.471 115.746Z" fill="#212121"/>
<path d="M285.465 127.523C285.465 127.862 285.433 128.195 285.366 128.524C285.302 128.855 285.203 129.177 285.074 129.488C284.945 129.798 284.786 130.095 284.599 130.376C284.413 130.654 284.199 130.914 283.959 131.153C283.722 131.39 283.462 131.604 283.181 131.79C282.902 131.979 282.605 132.135 282.295 132.264C281.981 132.395 281.661 132.492 281.33 132.556C280.998 132.623 280.664 132.655 280.328 132.655C279.99 132.655 279.656 132.623 279.324 132.556C278.995 132.492 278.673 132.395 278.362 132.264C278.049 132.135 277.754 131.979 277.473 131.79C277.192 131.604 276.934 131.39 276.695 131.153C276.456 130.914 276.244 130.654 276.055 130.376C275.868 130.095 275.71 129.798 275.581 129.488C275.452 129.177 275.355 128.855 275.288 128.524C275.224 128.195 275.189 127.862 275.189 127.523C275.189 127.188 275.224 126.852 275.288 126.523C275.355 126.192 275.452 125.87 275.581 125.559C275.71 125.249 275.868 124.952 276.055 124.671C276.244 124.393 276.456 124.133 276.695 123.894C276.934 123.657 277.192 123.443 277.473 123.256C277.754 123.068 278.049 122.911 278.362 122.783C278.673 122.652 278.995 122.555 279.324 122.491C279.656 122.424 279.99 122.392 280.328 122.392C280.664 122.392 280.998 122.424 281.33 122.491C281.661 122.555 281.981 122.652 282.295 122.783C282.605 122.911 282.902 123.068 283.181 123.256C283.462 123.443 283.722 123.657 283.959 123.894C284.199 124.133 284.413 124.393 284.599 124.671C284.786 124.952 284.945 125.249 285.074 125.559C285.203 125.87 285.302 126.192 285.366 126.523C285.433 126.852 285.465 127.188 285.465 127.523Z" fill="#212121"/>
<mask id="mask2_2031_721" style="mask-type:luminance" maskUnits="userSpaceOnUse" x="252" y="136" width="186" height="284">
<path d="M252.109 136.895H437.191V419.365H252.109V136.895Z" fill="white"/>
</mask>
<g mask="url(#mask2_2031_721)">
<path d="M437.145 419.461C437.145 419.461 396.72 341.547 378.662 305.268C360.606 268.988 346.651 216.685 340.906 204.296C335.159 191.907 327.773 177.968 320.796 170.179C313.82 162.388 293.298 136.458 288.785 137.327C284.27 138.199 285.912 148.228 290.427 155.931C294.942 163.635 307.663 179.201 309.717 183.3C311.768 187.399 323.26 202.981 323.26 207.08C323.26 211.179 276.064 169.77 268.678 168.127C261.289 166.487 259.152 170.423 264.985 181.062L278.118 197.239C278.118 197.239 264.985 180.466 260.06 181.062C255.135 181.66 255.545 193.55 263.753 204.618C271.961 215.689 275.654 219.379 275.654 219.379C275.654 219.379 258.828 204.209 255.135 205.028C251.442 205.849 249.8 215.689 261.291 229.217C272.781 242.747 295.354 259.148 303.562 270.628C311.771 282.109 353.63 419.459 353.63 419.459H437.145V419.461Z" fill="#F6C19E"/>
</g>
<path d="M269.983 190.099C272.56 192.255 275.138 194.412 277.715 196.568C280.282 198.714 282.849 200.862 285.417 203.011C287.995 205.166 290.572 207.323 293.151 209.479C295.718 211.627 298.285 213.773 300.852 215.922C303.429 218.077 306.008 220.235 308.584 222.39C308.902 222.655 309.217 222.919 309.533 223.184C309.781 223.393 310.044 223.533 310.378 223.533C310.672 223.533 311.022 223.402 311.225 223.184C311.633 222.74 311.736 221.921 311.225 221.491C308.646 219.335 306.07 217.178 303.491 215.022C300.924 212.874 298.357 210.728 295.789 208.579C293.213 206.424 290.634 204.266 288.058 202.111C285.488 199.963 282.923 197.814 280.356 195.668C277.777 193.513 275.201 191.355 272.622 189.2C272.306 188.935 271.991 188.671 271.673 188.406C271.425 188.197 271.164 188.057 270.828 188.057C270.534 188.057 270.184 188.185 269.983 188.406C269.576 188.85 269.47 189.669 269.983 190.099Z" fill="#212121"/>
<path d="M274.089 219.476C277.038 221.799 279.987 224.122 282.935 226.445C286.029 228.884 289.124 231.322 292.22 233.76C293.828 235.025 295.432 236.29 297.04 237.556C297.3 237.76 297.541 237.907 297.885 237.907C298.179 237.907 298.529 237.776 298.732 237.556C298.939 237.328 299.096 237.029 299.082 236.711C299.07 236.415 298.976 236.056 298.732 235.865C295.782 233.542 292.833 231.218 289.883 228.895C286.789 226.459 283.694 224.021 280.6 221.583C278.993 220.315 277.388 219.05 275.781 217.785C275.521 217.583 275.279 217.435 274.936 217.435C274.641 217.435 274.289 217.566 274.089 217.785C273.879 218.015 273.722 218.314 273.739 218.631C273.752 218.926 273.847 219.285 274.089 219.476Z" fill="#212121"/>
</svg>
