<svg width="611" height="431" viewBox="0 0 611 431" fill="none" xmlns="http://www.w3.org/2000/svg">
<path fill-rule="evenodd" clip-rule="evenodd" d="M120.663 292.972C119.168 284.092 117.479 264.632 117.137 247.887C116.845 234.015 117.284 223.203 121.305 211.062C124.799 200.524 133.731 191.723 141.078 187.116C142.929 185.953 149.771 182.937 158.987 180.076C168.447 177.134 180.372 174.322 189.236 171.121C196.471 168.507 201.341 165.849 203.484 164.125C225.7 146.207 282.644 163.185 296.936 174.334C298.34 175.424 303.118 180.076 307.296 182.914C312.175 186.236 316.803 187.822 323.026 189.606C331.576 192.042 344.42 196.989 355.522 201.174C362.008 203.617 366.566 205.749 371.89 209.919C374.342 211.842 377.853 213.859 380.197 217.137C385.94 225.188 388.755 236.608 391.886 249.895C395.058 263.365 398.534 278.72 401.048 288.569C402.307 293.531 409.854 328.297 411.711 337.387C415.715 357.009 370.887 368.926 355.171 375.364C352.884 376.301 334.936 347.293 334.93 349.487C334.922 355.231 330.735 369.289 329.883 374.7C327.917 387.11 324.777 404.906 314.156 409.097C312.729 409.661 315.229 412.762 309.05 413.064C302.514 413.38 288.257 412.922 280.427 412.234C275.613 411.808 275.498 411.061 274.381 411.061C272.211 411.061 269.82 414.57 267.244 414.655C255.82 415.027 232.44 414.369 215.167 412.969C194.82 411.321 180.195 408.566 163.477 404.192C151.87 401.153 147.448 402.048 140.621 395.497C136.986 392.009 132.723 381.123 130.592 370.226C129.171 362.969 129.79 355.796 128.519 346.738C125.486 325.108 122.031 301.135 120.663 292.972Z" fill="#C37F38"/>
<path fill-rule="evenodd" clip-rule="evenodd" d="M316.779 375.441C316.779 375.441 347.33 377.564 355.876 375.296C357.727 374.806 364.298 368.199 369.693 360.943C375.085 353.701 379.298 345.816 386.753 340.848C390.064 338.639 402.717 335.695 409.096 335.763C411.983 335.792 411.82 338.598 412.021 338.598C412.77 338.598 418.168 339.434 420.267 340.063C423.229 340.958 422.952 341.867 422.737 343.09C422.598 343.87 430.281 343.787 434.113 345.709C436.607 346.962 436.003 350.299 435.587 351.011C435.287 351.527 437.117 351.784 439.166 355.556C441.212 359.327 444.708 363.494 446.032 366.876C447.32 370.184 444.947 375.517 444.461 376.028C443.579 376.941 442.769 385.686 441.589 386.439C440.909 386.876 438.226 386.737 437.256 385.458C435.696 383.4 435.72 379.658 434.308 380.048C433.214 380.355 431.05 377.396 429.88 377.673C429.013 377.883 426.024 374.117 425.128 374.327C423.96 374.596 423.023 375.727 421.192 373.453C420.877 373.069 419.332 369.868 418.931 369.575C418.524 369.289 406.768 382.089 402.116 388.979C400.211 391.799 393.667 399.552 386.671 403.432C379.734 407.289 372.355 407.295 366.969 407.295C359.638 407.295 308.885 408.733 308.885 408.733C308.885 408.733 307.036 403.152 309.011 394.829C310.984 386.501 316.779 375.441 316.779 375.441Z" fill="#FFE9E1"/>
<path fill-rule="evenodd" clip-rule="evenodd" d="M177.435 100.197C177.435 95.1201 175.351 84.3227 176.347 72.7486C176.955 65.7138 179.363 58.6524 182.137 51.6648C187.615 37.8226 199.018 25.4895 209.972 17.923C217.72 12.5687 224.359 9.49129 232.43 10.4364C239.632 11.284 239.674 7.5421 242.572 5.79078C248.376 2.29404 252.828 1.24561 257.904 1.24561C269.036 1.24561 284.315 6.44641 296.025 18.812C305.476 28.7972 313.445 40.1823 319.199 53.3275C324.417 65.259 328.388 78.1473 328.388 85.6458C328.388 87.2465 327.802 102.099 326.829 111.142C323.722 140.123 296.768 171.204 294.035 170.811C286.694 169.754 245.113 164.018 233.701 193.755C233.215 195.031 228.651 203.826 226.599 212.538C224.963 219.485 225.346 226.097 227.537 230.861C231.965 240.504 238.545 236.44 238.17 236.998C226.782 253.962 205.701 237.686 202.868 238.026C196.742 238.752 185.471 232.978 184.802 225.489C184.115 217.763 186.406 207.931 189.593 199.615C193.354 189.798 200.654 176.136 198.331 180.217C196.002 184.299 206.24 162.308 201.818 165.2C198.039 167.68 175.566 175.418 171.256 176.428C165.104 177.869 157.863 180.365 157.863 180.365C157.863 180.365 154.514 177.884 156.699 175.702C160.608 171.785 166.687 170.365 169.655 166.221C171.477 163.67 173.146 161.508 173.293 160.386C174.001 154.845 162.388 146.49 161.504 143.324C160.484 139.68 162.884 133.894 167.052 124.627C168.992 120.315 171.681 117.878 173.547 113.782C176.029 108.33 177.435 101.644 177.435 100.197Z" fill="#664724"/>
<path fill-rule="evenodd" clip-rule="evenodd" d="M207.653 117.787C207.653 115.315 209.902 109.603 212.945 107.902C214.696 106.921 216.444 108.885 218.87 109.411C220.851 109.842 222.449 109.308 224.911 109.119C228.926 108.806 233.905 108.304 236.682 106.118C238.492 104.698 241.378 101.396 243.277 97.0839C245.821 91.3013 247.127 83.7113 246.802 76.4106C246.416 67.7485 247.395 54.1691 251.269 45.6517C253.816 40.0581 257.819 34.9253 261.775 33.4781C263.474 32.855 265.06 34.4439 266.696 34.4439C269.558 34.4439 272.491 38.7114 275.439 39.878C277.606 40.7285 277.082 37.4503 282.12 39.5531C290.872 43.2093 292.856 51.6499 299.59 63.3747C302.886 69.113 305.439 74.7893 309.976 78.7497C312.697 81.1182 318.012 84.4023 320.019 90.0255C321.355 93.7851 321.299 95.4448 323.436 97.4856C324.943 98.9239 325.317 102.004 326.529 103.422C328.218 105.4 330.679 108.614 332.239 110.12C335.473 113.245 337.469 114.163 339.249 117.477C339.812 118.516 338.834 121.272 339.335 122.338C339.727 123.174 343.863 126.783 343.733 130.383C343.633 133.191 339.338 136.097 339.137 137.001C338.987 137.701 341.39 141.685 339.683 144.591C337.569 148.191 331.234 150.832 330.688 151.747C329.907 153.067 327.77 157.996 323.345 160.997C317.705 164.836 309.451 167.403 303.572 170.226C299.065 172.394 296.188 175.208 295.542 175.849C293.991 177.406 300.733 193.971 309.996 210.326C319.48 227.086 331.505 243.625 331.505 243.625C331.505 243.625 326.243 255.04 318.027 262.027C314.386 265.125 309.822 269.272 306.302 270.491C301.874 272.021 298.652 271.572 298.652 271.572C298.652 271.572 274.688 209.869 272.801 211.2C271.663 212.004 270.475 214.653 268.771 216.215C265.425 219.281 260.758 221.531 255.219 221.091C250.072 220.684 243.84 219.036 239.008 216.177C233.74 213.061 230.046 208.678 228.973 207.411C228.425 206.765 230.394 201.369 232.49 196.88C235.013 191.475 237.843 186.274 238.371 177.618C238.94 168.3 238.191 158.268 236.243 150.256C234.391 142.642 231.367 136.83 230.795 136.05C229.863 134.783 227.864 135.084 225.78 134.68C223.628 134.257 220.397 133.005 217.989 131.49C212.093 127.796 207.653 120.167 207.653 117.787Z" fill="#FFE9E1"/>
<path fill-rule="evenodd" clip-rule="evenodd" d="M317.575 130.796C318.239 128.69 318.737 123.259 319.288 119.766C319.842 116.275 319.842 112.06 321.278 113.947C322.72 115.832 324.491 117.604 325.706 119.822C326.923 122.04 326.923 122.317 325.211 123.868C323.492 125.421 316.909 132.902 317.575 130.796Z" fill="#664724"/>
<path fill-rule="evenodd" clip-rule="evenodd" d="M435.879 417.768C435.879 411.593 466.27 406.587 503.769 406.587C541.268 406.587 571.668 411.593 571.668 417.768C571.668 423.937 541.268 428.949 503.769 428.949C466.27 428.949 435.879 423.937 435.879 417.768Z" fill="#EFEFEF"/>
<path fill-rule="evenodd" clip-rule="evenodd" d="M461.199 375.092C461.199 366.46 460.427 350.252 462.912 348.817C471.252 343.988 494.919 343.586 503.034 343.586C512.229 343.586 535.984 346.28 540.781 348.424C543.629 349.7 543.867 358.182 543.867 365.689C543.867 369.791 543.567 380.11 541.014 387.458C537.612 397.227 531.453 404.268 528.709 409.02C527.73 410.718 526.076 413.202 524.64 414.555C520.513 418.45 510.071 420.157 504.709 420.157C499.615 420.157 491.16 419.212 485.682 417.768C482.36 416.894 481.066 416.908 479.598 413.802C478.162 410.76 470.217 399.469 467.54 395.196C464.958 391.073 461.199 379.298 461.199 375.092Z" fill="#EFEFEF"/>
<path fill-rule="evenodd" clip-rule="evenodd" d="M544.278 371.74C544.891 372.172 545.929 373.208 547.016 371.838C548.104 370.465 549.855 367.201 551.789 365.781C553.732 364.36 556.99 363.932 558.455 364.499C559.92 365.069 562.473 366.87 562.897 369.519C563.322 372.172 564.124 376.95 562.564 380.172C561.008 383.391 559.304 386.182 556.326 387.366C553.349 388.548 548.434 389.59 545.41 391.011C542.385 392.434 537.948 393.663 537.948 393.663L534.163 401.238C534.163 401.238 535.675 402.372 537.046 401.096C538.42 399.818 543.614 395.603 545.13 395.225C546.642 394.844 554.484 393.14 556.046 392.951C557.606 392.765 562.564 389.543 564.171 387.174C565.778 384.809 568.805 377.993 568.852 374.821C568.9 371.652 567.95 366.159 566.963 364.026C565.966 361.9 560.344 358.725 558.688 358.347C557.037 357.966 553.349 358.631 551.082 359.815C548.812 361.002 546.403 363.081 545.271 364.36C544.136 365.636 543.665 371.315 544.278 371.74Z" fill="#EFEFEF"/>
<path fill-rule="evenodd" clip-rule="evenodd" d="M467.263 353.409C467.263 351.404 483.091 349.777 502.616 349.777C522.141 349.777 537.966 351.404 537.966 353.409C537.966 355.415 522.141 357.042 502.616 357.042C483.091 357.042 467.263 355.415 467.263 353.409Z" fill="#664724"/>
<path d="M317.437 131.103C317.295 131.103 317.151 131.086 317.009 131.041C316.201 130.802 315.744 129.957 315.983 129.148C317.375 124.435 318.339 119.42 318.763 114.641C318.84 113.809 319.562 113.197 320.414 113.265C321.251 113.336 321.865 114.077 321.794 114.913C321.346 119.889 320.349 125.108 318.899 130.013C318.701 130.672 318.097 131.103 317.437 131.103Z" fill="#2E2020"/>
<path d="M263.359 155.524C263.202 155.524 263.046 155.495 262.887 155.447C256.755 153.445 252.085 151.056 249.008 148.345C248.377 147.786 248.315 146.824 248.869 146.195C249.423 145.563 250.381 145.501 251.015 146.056C253.739 148.46 258.173 150.704 263.833 152.55C264.629 152.813 265.062 153.669 264.806 154.473C264.597 155.114 263.998 155.524 263.359 155.524Z" fill="#2E2020"/>
<path d="M286.533 106.339C286.182 106.339 285.834 106.218 285.545 105.976C284.908 105.43 284.832 104.47 285.374 103.829C287.169 101.726 289.139 97.8426 287.688 96.1947C287.01 95.4238 285.928 94.7239 284.782 93.9826C281.81 92.0511 277.314 89.1303 280.784 83.1557C281.206 82.4292 282.134 82.1841 282.865 82.6064C283.591 83.0317 283.832 83.959 283.414 84.6855C281.486 88.008 283.03 89.2159 286.432 91.425C287.709 92.2461 289.021 93.0966 289.97 94.1834C293.024 97.6536 289.973 103.12 287.688 105.802C287.388 106.156 286.957 106.339 286.533 106.339Z" fill="#2E2020"/>
<path d="M244.65 78.6197C244.246 78.6197 243.833 78.4513 243.533 78.1324C242.967 77.5151 243.005 76.5494 243.621 75.9794C249.06 70.9321 255.51 68.2889 261.781 68.537C262.621 68.5665 263.273 69.2753 263.24 70.1141C263.208 70.9558 262.539 71.6587 261.66 71.5789C256.212 71.387 250.528 73.7201 245.682 78.2121C245.39 78.4838 245.018 78.6197 244.65 78.6197Z" fill="#2E2020"/>
<path d="M286.406 63.9209C285.996 63.9209 285.589 63.7584 285.288 63.4336C284.716 62.8163 284.755 61.8506 285.371 61.2806C289.439 57.5092 294.082 55.6988 299.206 55.9055C300.04 55.9321 300.695 56.6409 300.662 57.4826C300.633 58.3243 299.922 59.0272 299.088 58.9445C294.816 58.7821 290.889 60.3178 287.434 63.5192C287.145 63.7909 286.771 63.9209 286.406 63.9209Z" fill="#2E2020"/>
<path d="M230.918 137.172C224.061 137.178 215.869 133.336 210.884 127.547C206.857 122.872 205.512 117.515 207.101 112.462C208.012 109.55 210.497 107.246 213.422 106.588C215.945 106.024 218.419 106.806 220.208 108.747C220.78 109.364 220.742 110.33 220.126 110.9C219.507 111.467 218.546 111.434 217.98 110.817C216.629 109.358 215.117 109.325 214.091 109.559C212.228 109.975 210.583 111.511 209.996 113.374C208.384 118.513 210.839 122.84 213.189 125.56C218.106 131.272 226.821 134.96 233.032 133.971C233.858 133.829 234.642 134.402 234.774 135.232C234.907 136.065 234.341 136.845 233.516 136.977C232.678 137.11 231.812 137.172 230.918 137.172Z" fill="#2E2020"/>
<path d="M227.336 125.716C226.93 125.716 226.52 125.548 226.219 125.229C223.822 122.627 221.396 121.777 217.263 122.075C216.429 122.131 215.698 121.499 215.642 120.663C215.58 119.822 216.208 119.095 217.048 119.033C222.107 118.67 225.411 119.86 228.451 123.159C229.02 123.776 228.981 124.736 228.371 125.309C228.076 125.584 227.708 125.716 227.336 125.716Z" fill="#2E2020"/>
<path d="M266.127 26.2069C265.57 26.2069 265.033 25.8997 264.768 25.3711C262.386 20.6517 254.948 15.4715 249.462 14.7066C248.63 14.5855 248.052 13.8177 248.167 12.9848C248.282 12.1549 249.055 11.5643 249.88 11.6913C256.407 12.5979 264.629 18.3481 267.483 23.9978C267.86 24.7479 267.559 25.6605 266.811 26.0444C266.59 26.1537 266.357 26.2069 266.127 26.2069Z" fill="#2E2020"/>
<path d="M221.9 110.524C221.122 110.524 220.459 109.928 220.388 109.133C220.317 108.298 220.936 107.556 221.77 107.485C223.135 107.364 224.5 107.37 225.818 107.385C228.666 107.403 231.352 107.414 233.763 106.195C244.735 100.64 245.228 84.4228 245.667 70.1139C245.876 63.0703 246.083 56.4164 247.457 51.2835C248.612 46.9864 254.261 33.8294 261.306 31.7561C263.644 31.0739 265.926 31.6498 267.892 33.4395C268.517 34.0036 268.561 34.9693 267.998 35.5895C267.435 36.2156 266.471 36.2629 265.849 35.6959C264.658 34.6149 263.488 34.2901 262.167 34.6829C257.176 36.1477 251.769 46.9421 250.396 52.075C249.113 56.8653 248.913 63.3479 248.701 70.2055C248.244 85.3649 247.719 102.541 235.137 108.909C232.068 110.462 228.881 110.448 225.803 110.43C224.491 110.415 223.259 110.409 222.036 110.521C221.992 110.524 221.947 110.524 221.9 110.524Z" fill="#2E2020"/>
<path d="M327.64 103.631C327.631 103.631 327.619 103.631 327.61 103.631C326.77 103.613 326.104 102.916 326.121 102.075C326.281 94.6708 320.874 90.0665 314.624 84.7358C310.892 81.558 307.033 78.2709 304.203 74.1245C303.171 72.6242 301.788 70.1286 300.037 66.9804C294.926 57.7778 286.376 42.3821 279.664 40.5599C278.561 40.2587 277.582 40.3797 276.677 40.9143C275.952 41.3455 275.021 41.1063 274.59 40.3797C274.166 39.6562 274.404 38.7259 275.13 38.2947C276.757 37.329 278.546 37.1045 280.454 37.6213C288.41 39.7802 297.007 55.2556 302.694 65.4978C304.341 68.46 305.762 71.0176 306.706 72.4086C309.312 76.2154 313.012 79.3696 316.593 82.4204C322.864 87.7629 329.347 93.2886 329.161 102.14C329.143 102.967 328.465 103.631 327.64 103.631Z" fill="#2E2020"/>
<path d="M328.235 94.7657C328.203 94.7657 328.173 94.7657 328.141 94.7657C327.301 94.7096 326.667 93.9861 326.717 93.1444C328.194 69.6802 312.189 37.9142 295.872 20.7524C284.917 9.23738 256.875 -4.38632 243.925 7.91429C243.32 8.49314 242.356 8.46951 241.779 7.85522C241.201 7.24979 241.224 6.28405 241.835 5.7052C256.76 -8.47668 286.815 6.8186 298.071 18.6555C314.842 36.284 331.28 69.0393 329.753 93.3422C329.7 94.1455 329.031 94.7657 328.235 94.7657Z" fill="#2E2020"/>
<path d="M298.64 272.632C298.065 272.632 297.517 272.305 297.26 271.743C295.94 268.873 293.729 263.326 290.934 256.309C285.288 242.157 276.763 220.769 268.299 203.341C266.35 199.328 264.514 195.737 262.892 192.574C258.565 184.118 255.702 178.525 255.552 174.405C255.195 164.405 260.407 155.672 270.622 149.142C278.738 143.962 287.609 141.714 290.07 141.333C291.529 141.109 292.865 140.917 294.1 140.734C299.69 139.928 303.062 139.44 306.579 137.733C311.602 135.294 315.338 131.49 319.288 127.465C321.366 125.353 323.512 123.167 325.88 121.171C326.522 120.625 327.48 120.71 328.02 121.357C328.559 121.998 328.48 122.958 327.834 123.504C325.579 125.406 323.483 127.538 321.461 129.603C317.496 133.637 313.401 137.81 307.906 140.477C303.964 142.385 300.214 142.928 294.536 143.752C293.304 143.926 291.983 144.118 290.533 144.343C284.018 145.344 257.854 153.826 258.591 174.295C258.718 177.742 261.604 183.377 265.596 191.183C267.223 194.36 269.071 197.966 271.032 202.009C279.543 219.537 288.098 240.985 293.752 255.181C296.535 262.157 298.734 267.668 300.023 270.473C300.371 271.232 300.037 272.142 299.274 272.491C299.067 272.585 298.852 272.632 298.64 272.632Z" fill="#2E2020"/>
<path d="M323.675 146.921C323.613 146.921 323.551 146.915 323.492 146.91C322.658 146.809 322.062 146.05 322.162 145.217C322.79 139.937 326.638 135.826 330.358 131.853C334.276 127.672 337.979 123.717 337.737 118.806C337.687 117.766 336.198 116.449 335.11 115.486C334.762 115.176 334.435 114.884 334.146 114.609C331.714 112.255 329.644 109.647 327.634 107.113C326.467 105.64 325.258 104.116 323.999 102.678C323.569 102.178 323.221 101.452 322.687 100.306C322.366 99.612 321.809 98.4218 321.414 97.8932C321.131 98.1442 320.627 98.8323 320.158 100.123C318.802 103.877 319.671 107.016 321.393 110.578C322.204 112.261 323.303 113.714 324.468 115.253C325.564 116.691 326.691 118.18 327.581 119.89C327.97 120.64 327.681 121.558 326.938 121.945C326.192 122.338 325.273 122.045 324.886 121.298C324.114 119.819 323.112 118.493 322.047 117.093C320.845 115.501 319.601 113.856 318.654 111.907C316.962 108.398 315.473 104.134 317.301 99.0863C318.339 96.2098 319.887 94.7036 321.694 94.7331C323.48 94.804 324.429 96.8506 325.441 99.0154C325.706 99.5943 326.113 100.463 326.29 100.675C327.593 102.167 328.828 103.72 330.016 105.22C332.047 107.781 333.972 110.206 336.257 112.418C336.513 112.666 336.811 112.926 337.124 113.206C338.701 114.597 340.655 116.334 340.776 118.652C341.077 124.86 336.752 129.473 332.572 133.939C329.037 137.719 325.694 141.289 325.181 145.578C325.087 146.351 324.432 146.921 323.675 146.921Z" fill="#2E2020"/>
<path d="M323.66 155.433C323.415 155.433 323.168 155.377 322.941 155.253C322.201 154.851 321.923 153.927 322.324 153.185C324.895 148.422 331.746 141.821 336.752 136.998C338.901 134.928 341.333 132.586 341.672 131.984C343.031 129.58 341.634 126.289 339.473 124.733C338.795 124.234 338.642 123.283 339.134 122.604C339.626 121.922 340.576 121.768 341.257 122.261C344.541 124.636 346.581 129.488 344.32 133.484C343.786 134.426 342.168 136.003 338.863 139.19C334.276 143.608 327.345 150.285 325.001 154.636C324.724 155.146 324.199 155.433 323.66 155.433Z" fill="#2E2020"/>
<path d="M318.793 163.008C318.359 163.008 317.929 162.822 317.628 162.464C317.089 161.824 317.171 160.864 317.811 160.317C319.14 159.201 320.467 158.046 321.794 156.892C325.131 153.994 328.58 150.997 332.191 148.398C332.746 147.996 333.427 147.58 334.161 147.131C335.924 146.059 338.117 144.727 338.671 143.336C338.933 142.674 338.574 141.118 338.341 140.084C338.226 139.582 338.117 139.11 338.049 138.708C337.922 137.875 338.485 137.098 339.314 136.962C340.139 136.824 340.923 137.394 341.056 138.227C341.109 138.569 341.203 138.971 341.304 139.402C341.663 140.97 342.111 142.919 341.495 144.467C340.561 146.8 337.887 148.424 335.741 149.736C335.083 150.137 334.461 150.509 333.966 150.867C330.464 153.392 327.068 156.342 323.789 159.195C322.442 160.356 321.113 161.519 319.771 162.645C319.485 162.89 319.138 163.008 318.793 163.008Z" fill="#2E2020"/>
<path d="M295.448 177.813C295.294 177.813 295.141 177.79 294.988 177.745C294.192 177.494 293.744 176.638 293.997 175.835C294.994 172.645 299.56 170.619 304.551 168.649C305.161 168.41 305.71 168.197 306.143 168.008L306.535 167.843C313.074 165.037 326.682 159.21 328.89 152.149C329.143 151.346 329.992 150.897 330.797 151.151C331.596 151.405 332.044 152.258 331.791 153.058C329.161 161.455 315.22 167.432 307.729 170.64L307.343 170.811C306.883 171.006 306.308 171.23 305.663 171.49C303.024 172.521 297.541 174.686 296.898 176.747C296.692 177.397 296.096 177.813 295.448 177.813Z" fill="#2E2020"/>
<path d="M330.809 243.365C330.326 243.365 329.854 243.141 329.556 242.716L328.056 240.569C317.929 226.115 299.082 199.219 293.514 176.895C293.31 176.077 293.806 175.25 294.622 175.046C295.433 174.839 296.258 175.338 296.465 176.153C301.898 197.931 320.535 224.529 330.547 238.814L332.047 240.97C332.531 241.658 332.363 242.609 331.676 243.094C331.413 243.28 331.11 243.365 330.809 243.365Z" fill="#2E2020"/>
<path d="M234.606 239.538C233.262 239.538 232.153 239.106 231.328 238.61C225.803 235.302 223.79 223.991 223.952 220.249C224.3 212.405 227.56 204.384 230.715 196.626C232.33 192.651 233.857 188.894 234.954 185.273C239.07 171.708 237.156 153.176 230.084 138.058C229.727 137.293 230.055 136.39 230.815 136.032C231.579 135.678 232.478 136.003 232.837 136.762C240.207 152.527 242.183 171.915 237.867 186.159C236.726 189.91 235.175 193.731 233.527 197.775C230.476 205.294 227.316 213.07 226.992 220.382C226.835 223.879 228.958 233.643 232.885 235.994C233.678 236.469 234.969 236.956 237.065 235.698C237.781 235.273 238.716 235.506 239.143 236.23C239.574 236.95 239.341 237.884 238.618 238.318C237.121 239.213 235.777 239.538 234.606 239.538Z" fill="#2E2020"/>
<path d="M224.898 246.493C223.99 246.493 223.109 246.292 222.254 245.893C218.938 244.363 216.281 239.91 214.362 232.659C214.144 231.847 214.63 231.009 215.441 230.793C216.252 230.583 217.08 231.062 217.296 231.874C218.929 238.032 221.143 242.027 223.522 243.132C224.515 243.59 225.579 243.537 226.767 242.964C227.525 242.597 228.433 242.922 228.796 243.675C229.164 244.437 228.843 245.344 228.085 245.707C227 246.23 225.933 246.493 224.898 246.493Z" fill="#2E2020"/>
<path d="M201.131 240.01C196.049 240.01 191.704 238.448 188.473 235.435C184.723 231.936 182.748 226.741 182.762 220.403C182.789 209.319 187.052 200.412 191.565 190.988C192.756 188.492 193.994 185.914 195.129 183.315C200.692 170.58 203.637 160.533 204.973 149.721C206.214 139.683 203.036 129.65 199.958 119.945C199.389 118.15 198.82 116.366 198.292 114.603C194.858 103.194 196.636 83.0259 201.951 73.0968C202.349 72.3585 203.269 72.0809 204.009 72.4766C204.749 72.8724 205.026 73.7968 204.628 74.5381C199.619 83.8972 197.953 102.934 201.202 113.723C201.733 115.477 202.29 117.246 202.859 119.024C206.031 129.042 209.309 139.396 207.991 150.093C206.618 161.218 203.602 171.516 197.915 184.538C196.757 187.187 195.51 189.786 194.307 192.305C189.947 201.413 185.828 210.016 185.802 220.412C185.787 225.881 187.426 230.302 190.542 233.203C193.54 235.999 197.791 237.275 202.835 236.903C203.664 236.832 204.404 237.467 204.466 238.303C204.527 239.145 203.9 239.877 203.062 239.939C202.411 239.986 201.759 240.01 201.131 240.01Z" fill="#2E2020"/>
<path d="M210.353 240.155C210.329 240.155 210.306 240.155 210.279 240.155C204.672 239.871 200.769 235.104 199.843 227.405C199.743 226.569 200.338 225.807 201.17 225.707C201.998 225.612 202.762 226.2 202.862 227.036C203.216 229.972 204.657 236.82 210.429 237.113C211.27 237.157 211.915 237.869 211.871 238.705C211.833 239.523 211.16 240.155 210.353 240.155Z" fill="#2E2020"/>
<path d="M156.513 181.127C155.85 181.127 155.239 180.687 155.054 180.013C153.42 174.204 158.571 171.428 163.108 168.974C168.352 166.141 171.739 163.962 171.094 159.582C170.628 156.398 168.152 153.977 165.528 151.413C162.3 148.259 158.966 144.999 159.573 140.123C160.437 133.244 163.977 127.819 167.403 122.571C170.466 117.872 173.367 113.436 174.419 108.079C175.728 101.452 175.221 95.6632 174.682 89.5321C174.233 84.4258 173.771 79.1482 174.434 73.3331C176.61 54.2783 191.011 26.9718 208.976 16.6942C213.507 14.1042 224.939 8.31858 233.203 10.5808C234.016 10.7994 234.491 11.6411 234.267 12.4503C234.049 13.2625 233.214 13.7409 232.404 13.5194C225.025 11.5023 213.76 17.465 210.482 19.3374C193.319 29.1602 179.549 55.3651 177.456 73.6816C176.825 79.1866 177.279 84.3107 177.712 89.2634C178.243 95.3384 178.797 101.62 177.403 108.67C176.232 114.609 173.037 119.505 169.944 124.24C166.563 129.426 163.364 134.325 162.592 140.501C162.167 143.876 164.705 146.357 167.651 149.234C170.383 151.906 173.491 154.937 174.107 159.142C175.103 165.952 169.254 169.113 164.549 171.652C159.874 174.18 157.052 175.89 157.978 179.189C158.208 180.001 157.736 180.84 156.929 181.068C156.79 181.106 156.651 181.127 156.513 181.127Z" fill="#2E2020"/>
<path d="M251.1 417.083C222.849 417.083 178.614 410.689 163.747 406.607C162.073 406.144 160.392 405.736 158.733 405.331C150.045 403.214 141.053 401.02 136.148 391.956C129.86 380.34 128.486 367.319 127.157 354.723C126.82 351.56 126.473 348.285 126.057 345.116C125.379 340.007 124.683 334.883 123.982 329.744C120.099 301.227 116.081 271.744 116.037 242.736C116.01 224.455 117.015 208.229 129.68 194.845C140.426 183.483 155.534 179.396 170.15 175.439C180.973 172.512 192.16 169.482 201.449 163.525C202.157 163.073 203.097 163.277 203.548 163.986C204.002 164.697 203.799 165.633 203.092 166.088C193.404 172.302 181.984 175.388 170.943 178.377C156.08 182.402 142.041 186.197 131.882 196.939C119.999 209.508 119.049 225.116 119.076 242.73C119.12 271.534 123.124 300.917 126.997 329.333C127.693 334.472 128.395 339.602 129.07 344.714C129.494 347.928 129.842 351.221 130.181 354.404C131.478 366.702 132.82 379.419 138.822 390.503C143.088 398.379 150.67 400.231 159.452 402.372C161.141 402.783 162.851 403.199 164.549 403.666C192.331 411.3 266.683 418.373 272.783 410.836C273.313 410.181 274.265 410.08 274.92 410.612C275.574 411.144 275.675 412.097 275.144 412.753C272.615 415.875 263.364 417.083 251.1 417.083Z" fill="#2E2020"/>
<path d="M277.597 413.595C277.503 413.595 277.402 413.586 277.302 413.566C271.365 412.384 271.509 409.159 271.674 405.42L271.695 404.986C272.588 384.381 281.609 370.054 287.458 365.456C289.336 363.973 291.01 363.368 292.426 363.655C293.248 363.817 293.782 364.62 293.619 365.447C293.457 366.268 292.655 366.815 291.836 366.64C291.538 366.599 290.698 366.776 289.336 367.851C284.139 371.939 275.575 385.675 274.734 405.116L274.714 405.559C274.549 409.245 274.519 409.904 277.892 410.58C278.714 410.742 279.254 411.546 279.092 412.367C278.941 413.093 278.307 413.595 277.597 413.595Z" fill="#2E2020"/>
<path d="M290.613 364.738C290.226 364.738 289.84 364.59 289.539 364.295C287.726 362.481 275.466 361.197 261.268 359.705C242.728 357.765 217.334 355.101 189.552 349.286C183.325 347.981 162.088 360.904 159.258 363.748C158.665 364.345 157.701 364.345 157.112 363.754C156.513 363.161 156.513 362.195 157.106 361.598C159.859 358.834 182.087 344.605 190.171 346.303C217.802 352.086 243.108 354.744 261.589 356.678C280.675 358.678 289.215 359.667 291.686 362.139C292.284 362.73 292.284 363.695 291.692 364.289C291.391 364.59 291.005 364.738 290.613 364.738Z" fill="#2E2020"/>
<path d="M191.999 348.114C191.474 348.114 190.964 347.842 190.681 347.349C190.318 346.729 190.454 345.952 190.958 345.479C191.365 344.1 190.554 337.895 189.528 330.093C187.871 317.446 185.365 298.335 183.597 270.651C183.305 266.132 180.929 259.106 178.83 252.907C177.836 249.978 176.902 247.213 176.309 245.057C176.085 244.245 176.563 243.404 177.373 243.185C178.184 242.969 179.021 243.436 179.239 244.251C179.808 246.324 180.728 249.044 181.707 251.933C183.868 258.309 186.315 265.539 186.63 270.453C188.39 298.04 190.893 317.092 192.544 329.703C194.345 343.471 194.776 346.743 192.756 347.907C192.517 348.046 192.255 348.114 191.999 348.114Z" fill="#2E2020"/>
<path d="M321.647 375.332C321.19 375.332 320.73 375.125 320.429 374.729C320.043 374.206 319.766 373.595 319.503 372.998C319.238 372.417 318.878 371.607 318.56 371.427C316.732 370.385 313.601 370.435 311.084 370.479C310.609 370.488 310.161 370.494 309.737 370.494C305.509 370.494 301.143 369.635 296.927 368.802C294.625 368.347 292.461 367.919 290.327 367.626C289.493 367.511 288.915 366.74 289.03 365.91C289.145 365.075 289.911 364.484 290.743 364.611C292.962 364.915 295.277 365.37 297.514 365.813C301.591 366.616 305.807 367.449 309.737 367.449C309.781 367.449 309.822 367.449 309.86 367.449L311.031 367.434C313.917 367.387 317.513 367.325 320.063 368.778C321.252 369.451 321.818 370.733 322.277 371.761C322.472 372.195 322.678 372.65 322.858 372.889C323.365 373.557 323.23 374.513 322.563 375.024C322.286 375.231 321.965 375.332 321.647 375.332Z" fill="#2E2020"/>
<path d="M311.431 412.984C310.977 412.984 310.571 412.886 310.235 412.747C307.027 411.463 306.52 405.488 306.594 403.495C306.956 393.988 308.811 388.955 312.675 380.494C312.844 380.125 313.029 379.676 313.239 379.18C314.571 375.99 316.393 371.622 319.527 370.843C320.34 370.642 321.166 371.135 321.369 371.953C321.57 372.768 321.074 373.595 320.264 373.796C318.607 374.206 316.876 378.356 316.045 380.349C315.815 380.887 315.615 381.368 315.438 381.761C311.664 390.033 309.972 394.605 309.633 403.61C309.527 406.46 310.515 409.584 311.364 409.924C311.526 409.995 312.071 409.767 312.858 408.881C313.415 408.247 314.374 408.193 314.999 408.749C315.629 409.307 315.688 410.267 315.134 410.899C313.71 412.505 312.443 412.984 311.431 412.984Z" fill="#2E2020"/>
<path d="M302.933 414.803C295.557 414.803 287.998 414.298 277.102 413.565C276.265 413.509 275.631 412.783 275.69 411.941C275.746 411.105 276.489 410.494 277.306 410.526C289.301 411.333 297.216 411.864 305.27 411.74H305.825C309.634 411.696 311.494 411.33 311.771 409.354C311.886 408.524 312.652 407.936 313.484 408.054C314.318 408.17 314.896 408.94 314.781 409.77C314.1 414.699 308.935 414.747 305.854 414.779L305.318 414.791C304.528 414.8 303.732 414.803 302.933 414.803Z" fill="#2E2020"/>
<path d="M300.38 273.457C296.329 273.457 291.562 272.317 289.446 269.863C288.546 268.823 287.335 266.62 289.292 263.522C289.74 262.81 290.675 262.594 291.391 263.046C292.099 263.495 292.311 264.437 291.863 265.149C290.943 266.602 291.285 267.343 291.739 267.869C293.915 270.382 301.65 271.014 304.312 269.827C315.925 264.638 323.454 254.485 329.291 245.229C330.883 242.707 331.776 238.362 330.511 236.162C329.934 235.158 328.884 234.709 327.333 234.756C326.514 234.83 325.789 234.136 325.759 233.294C325.727 232.453 326.381 231.75 327.216 231.717C330.671 231.558 332.333 233.238 333.147 234.641C335.255 238.312 333.666 243.997 331.862 246.859C325.783 256.496 317.906 267.089 305.554 272.606C304.298 273.164 302.432 273.457 300.38 273.457Z" fill="#2E2020"/>
<path d="M305.208 293.642C303.778 293.642 302.646 293.436 301.945 292.99C297.54 290.205 295.385 285.639 293.295 281.218C292.841 280.258 292.393 279.307 291.922 278.383C291.214 276.997 290.403 275.707 289.616 274.463C286.745 269.898 283.776 265.187 290.008 259.469C290.624 258.899 291.585 258.944 292.154 259.564C292.717 260.187 292.679 261.153 292.06 261.717C287.703 265.713 289.298 268.241 292.187 272.839C293.009 274.139 293.861 275.488 294.631 276.997C295.114 277.948 295.577 278.929 296.043 279.918C297.941 283.938 299.914 288.102 303.569 290.414C305.686 291.767 324.043 287.331 333.093 280.214C340.54 274.354 350.484 261.903 348.181 253.787C347.607 251.764 345.814 250.128 343.916 248.397C342.392 247.006 340.814 245.568 339.788 243.814C339.337 243.049 338.872 242.198 338.379 241.301C334.391 234.003 330.88 228.634 325.101 231.209C324.338 231.555 323.436 231.206 323.097 230.441C322.755 229.67 323.097 228.773 323.866 228.427C332.663 224.505 337.707 233.734 341.05 239.839C341.519 240.707 341.973 241.534 342.406 242.275C343.199 243.634 344.544 244.853 345.962 246.147C348.09 248.087 350.295 250.096 351.106 252.954C354.083 263.427 341.519 277.455 334.968 282.609C327.734 288.303 312.519 293.642 305.208 293.642Z" fill="#2E2020"/>
<path d="M353.423 375.934C352.998 375.934 352.574 375.757 352.273 375.408C343.399 365.125 333.721 350.524 324.585 336.274C323.126 333.994 321.616 331.746 320.113 329.505C312.823 318.651 305.284 307.432 304.105 293.412C304.04 292.576 304.659 291.838 305.494 291.767C306.343 291.676 307.065 292.322 307.136 293.158C308.253 306.389 315.237 316.791 322.634 327.81C324.152 330.066 325.673 332.331 327.147 334.626C336.218 348.784 345.829 363.276 354.572 373.415C355.127 374.056 355.056 375.016 354.422 375.565C354.13 375.813 353.776 375.934 353.423 375.934Z" fill="#2E2020"/>
<path d="M404.011 335.802C403.486 335.802 402.973 335.53 402.693 335.04C391.594 315.778 355.413 264.325 350.384 262.757C349.555 262.606 349.025 261.812 349.178 260.985C349.331 260.158 350.121 259.609 350.962 259.765C357.957 261.056 397.764 320.385 405.326 333.516C405.747 334.242 405.494 335.175 404.769 335.595C404.53 335.734 404.268 335.802 404.011 335.802Z" fill="#2E2020"/>
<path d="M411.602 339.401C410.939 339.401 410.328 338.961 410.14 338.291C408.686 333.12 406.611 323.2 403.987 310.645C397.154 278.002 386.833 228.666 377.482 217.397C368.464 206.531 352.087 201.168 336.256 195.982C321.46 191.136 306.157 186.127 296.853 176.54C296.267 175.941 296.281 174.975 296.883 174.39C297.484 173.802 298.442 173.817 299.029 174.42C307.82 183.463 322.758 188.354 337.2 193.085C353.443 198.41 370.238 203.912 379.813 215.45C389.654 227.305 399.659 275.11 406.959 310.022C409.574 322.517 411.64 332.393 413.067 337.464C413.294 338.273 412.822 339.112 412.015 339.342C411.879 339.381 411.74 339.401 411.602 339.401Z" fill="#2E2020"/>
<path d="M356.631 266.682C355.846 266.682 355.18 266.085 355.112 265.291C354.85 262.119 356.445 253.867 357.155 251.186C357.371 250.374 358.205 249.895 359.016 250.105C359.826 250.326 360.31 251.156 360.094 251.968C359.322 254.877 357.937 262.562 358.143 265.034C358.214 265.87 357.595 266.605 356.76 266.679C356.71 266.682 356.672 266.682 356.631 266.682Z" fill="#2E2020"/>
<path d="M329.633 376.049C329.524 376.049 329.42 376.038 329.308 376.011C328.489 375.837 327.97 375.025 328.144 374.204L328.58 372.195C330.219 364.573 332.271 355.084 332.646 351.637C332.734 350.801 333.489 350.193 334.32 350.285C335.148 350.376 335.756 351.126 335.664 351.962C335.278 355.565 333.209 365.146 331.546 372.842L331.118 374.844C330.959 375.556 330.331 376.049 329.633 376.049Z" fill="#2E2020"/>
<path d="M310.606 410.568C309.781 410.568 309.103 409.909 309.088 409.082C309.07 408.241 309.734 407.55 310.571 407.523C329.647 407.11 350.92 406.631 361.863 406.144C363.444 406.076 365 406.032 366.527 405.999C372.792 405.851 378.708 405.707 383.962 403.241C392.688 399.141 399.448 390.547 405.989 382.24C408.362 379.227 410.6 376.383 412.908 373.781L413.495 373.114C417.504 368.563 424.211 360.928 431.274 361.93C432.103 362.042 432.681 362.813 432.566 363.648C432.454 364.481 431.684 365.069 430.853 364.945C425.405 364.183 419.379 371.035 415.771 375.131L415.181 375.804C412.932 378.341 410.718 381.15 408.38 384.121C401.62 392.712 394.631 401.593 385.25 405.996C379.419 408.74 373.193 408.887 366.598 409.044C365.088 409.082 363.553 409.115 362.002 409.189C351.021 409.67 329.73 410.157 310.639 410.568C310.63 410.568 310.615 410.568 310.606 410.568Z" fill="#2E2020"/>
<path d="M437.819 373.908C437.595 373.908 437.362 373.858 437.147 373.754C434.933 372.653 433.441 370.455 432.118 368.518C431.053 366.956 430.051 365.479 428.945 364.93C428.197 364.558 427.887 363.645 428.259 362.892C428.63 362.139 429.541 361.829 430.296 362.201C432.115 363.099 433.391 364.986 434.632 366.808C435.797 368.515 436.994 370.278 438.497 371.02C439.246 371.398 439.555 372.304 439.184 373.06C438.919 373.601 438.379 373.908 437.819 373.908Z" fill="#2E2020"/>
<path d="M439.623 388.291C438.155 388.291 437.114 387.659 436.421 386.985C432.881 383.562 434.036 374.333 435.056 371.9C435.386 371.126 436.28 370.763 437.046 371.091C437.824 371.412 438.187 372.304 437.857 373.084C436.952 375.234 436.359 382.691 438.532 384.794C438.78 385.03 439.419 385.665 441.303 384.791C441.695 384.36 441.851 381.799 441.919 380.704C441.984 379.59 442.043 378.63 442.238 377.942C442.521 376.947 442.925 375.952 443.32 374.986C443.927 373.515 444.558 371.988 444.634 370.636C444.808 367.487 442.754 364.345 440.77 361.312C439.876 359.939 439.03 358.645 438.373 357.34C438.193 356.977 438.031 356.622 437.872 356.283C437.17 354.776 436.751 353.87 435.304 353.252C431.793 351.77 426.336 352.511 421.053 353.229C416.425 353.855 412.053 354.449 408.465 353.749C407.64 353.586 407.1 352.789 407.262 351.962C407.422 351.141 408.223 350.6 409.043 350.763C412.141 351.359 416.463 350.778 420.646 350.208C426.324 349.437 432.203 348.639 436.483 350.453C439.013 351.516 439.832 353.291 440.625 355.001C440.773 355.314 440.92 355.639 441.088 355.967C441.669 357.124 442.471 358.347 443.317 359.638C445.463 362.928 447.898 366.661 447.668 370.81C447.562 372.673 446.834 374.443 446.135 376.15C445.755 377.071 445.398 377.942 445.162 378.769C445.059 379.141 445 380.072 444.947 380.89C444.785 383.577 444.599 386.616 442.583 387.552C441.445 388.084 440.463 388.291 439.623 388.291Z" fill="#2E2020"/>
<path d="M435.28 351.868C435.142 351.868 435.003 351.847 434.865 351.806C434.06 351.578 433.588 350.739 433.821 349.93C434.231 348.462 433.865 347.795 433.55 347.42C431.253 344.667 421.51 345.624 416.826 346.082C415.119 346.25 413.757 346.366 412.929 346.368C411.743 346.345 410.075 346.292 408.35 346.241C406.237 346.174 404.049 346.106 402.608 346.091C401.767 346.088 401.095 345.4 401.098 344.558C401.104 343.722 401.785 343.046 402.622 343.046C402.625 343.046 402.631 343.046 402.631 343.046C404.09 343.061 406.31 343.129 408.448 343.197C410.152 343.253 411.805 343.306 412.979 343.321C413.677 343.329 414.983 343.205 416.531 343.052C424.635 342.257 432.81 341.785 435.882 345.465C436.684 346.428 437.486 348.123 436.743 350.757C436.554 351.428 435.944 351.868 435.28 351.868Z" fill="#2E2020"/>
<path d="M422.834 343.669C422.121 343.669 421.484 343.158 421.345 342.426C421.16 341.454 419.034 341.15 417.766 340.964L417.374 340.905C414.367 340.453 410.833 341.079 407.413 341.684C404.12 342.269 400.721 342.872 397.57 342.594C396.732 342.517 396.119 341.776 396.19 340.94C396.269 340.102 397.021 339.472 397.847 339.558C400.585 339.815 403.642 339.263 406.876 338.687C410.541 338.034 414.329 337.358 417.831 337.895L418.206 337.951C420.137 338.229 423.739 338.755 424.326 341.856C424.485 342.683 423.945 343.483 423.12 343.64C423.023 343.654 422.928 343.669 422.834 343.669Z" fill="#2E2020"/>
<path d="M343.538 377.916C337.807 377.916 330.248 377.644 320.52 377.101L317.988 376.965C317.147 376.923 316.502 376.206 316.546 375.364C316.587 374.528 317.304 373.858 318.144 373.92L320.691 374.059C342.188 375.255 354.121 375.131 356.153 373.692C361.999 369.552 366.898 362.812 371.636 356.288C375.515 350.952 379.527 345.432 384.047 341.389C388.422 337.473 403.804 333.684 409.134 334.576C410.464 334.803 411.334 335.302 411.788 336.117C412.197 336.847 411.935 337.774 411.201 338.185C410.514 338.574 409.653 338.368 409.211 337.733C407.012 336.48 390.279 339.9 386.069 343.663C381.795 347.487 378.053 352.632 374.094 358.081C369.212 364.8 364.159 371.752 357.91 376.176C356.259 377.343 351.801 377.916 343.538 377.916Z" fill="#2E2020"/>
<path d="M255.667 222.701C245.095 222.701 233.324 216.641 228.501 208.581C228.065 207.86 228.3 206.927 229.02 206.493C229.739 206.062 230.671 206.298 231.104 207.013C235.57 214.476 246.761 220.001 256.59 219.644C261.342 219.461 267.724 217.801 271.147 210.946C271.518 210.193 272.429 209.892 273.184 210.264C273.933 210.642 274.239 211.555 273.865 212.311C270.675 218.696 264.585 222.382 256.707 222.683C256.36 222.698 256.015 222.701 255.667 222.701Z" fill="#2E2020"/>
<path d="M434.105 381.663C429.771 381.663 428.907 376.014 428.214 371.477C427.934 369.628 427.581 367.328 427.103 366.684C426.599 366.014 426.732 365.06 427.404 364.558C428.082 364.05 429.031 364.188 429.532 364.862C430.473 366.114 430.82 368.385 431.221 371.014C431.684 374.044 432.38 378.618 434.105 378.618C434.948 378.618 435.626 379.304 435.626 380.145C435.626 380.987 434.948 381.663 434.105 381.663Z" fill="#2E2020"/>
<path d="M430.581 379.399C424.503 379.399 423.052 369.145 422.911 367.981C422.805 367.142 423.397 366.383 424.231 366.283C425.042 366.165 425.823 366.77 425.924 367.603C426.378 371.236 428.12 376.354 430.581 376.354C431.422 376.354 432.1 377.033 432.1 377.875C432.1 378.716 431.422 379.399 430.581 379.399Z" fill="#2E2020"/>
<path d="M423.677 376.291C422.643 376.291 421.634 375.987 420.747 375.387C419.179 374.321 418.244 372.473 418.244 370.441C418.244 369.596 418.919 368.917 419.765 368.917C420.6 368.917 421.284 369.596 421.284 370.441C421.284 371.46 421.723 372.366 422.457 372.865C423.085 373.294 423.848 373.367 424.609 373.06C425.387 372.75 426.269 373.122 426.584 373.908C426.894 374.691 426.51 375.574 425.735 375.887C425.057 376.158 424.364 376.291 423.677 376.291Z" fill="#2E2020"/>
<path fill-rule="evenodd" clip-rule="evenodd" d="M257.347 96.9214C256.655 93.847 257.993 90.9261 260.331 90.4004C262.669 89.8748 265.124 91.9362 265.811 95.0106C266.504 98.0821 265.169 101 262.831 101.529C260.493 102.054 258.04 99.9958 257.347 96.9214Z" fill="#2E2020"/>
<path fill-rule="evenodd" clip-rule="evenodd" d="M296.128 85.3148C295.438 82.2433 296.774 79.3225 299.112 78.7968C301.449 78.2711 303.905 80.3296 304.598 83.404C305.285 86.4784 303.949 89.3933 301.611 89.9249C299.277 90.4506 296.821 88.3892 296.128 85.3148Z" fill="#2E2020"/>
<path d="M287.14 126.96C284.711 126.96 282.049 126.685 279.163 126.08C278.346 125.903 277.816 125.096 277.993 124.272C278.166 123.451 278.965 122.92 279.794 123.097C294.908 126.298 301.774 119.388 302.579 115.746C302.768 114.922 303.578 114.408 304.395 114.588C305.215 114.772 305.73 115.587 305.548 116.411C304.451 121.366 298.157 126.96 287.14 126.96Z" fill="#2E2020"/>
<path d="M463.52 350.586C464.61 352.588 478.192 356.064 502.186 356.064C526.471 356.064 540.085 352.503 540.881 350.509C540.085 348.669 526.471 345.107 502.186 345.107C478.192 345.107 464.61 348.578 463.52 350.586ZM502.186 359.109C500.482 359.109 460.457 359.012 460.457 350.586C460.457 342.157 500.482 342.062 502.186 342.062C503.89 342.062 543.912 342.157 543.912 350.586C543.912 359.012 503.89 359.109 502.186 359.109Z" fill="#2E2020"/>
<path d="M503.011 421.471C486.971 421.471 478.124 417.304 477.664 413.276C477.375 412.738 476.325 411.238 475.308 409.779C470.995 403.609 462.974 392.118 461.252 383.872C457.617 366.483 460.111 350.624 460.22 349.959C460.356 349.126 461.12 348.562 461.969 348.698C462.794 348.834 463.357 349.614 463.222 350.447C463.198 350.603 460.713 366.436 464.224 383.252C465.822 390.883 473.613 402.041 477.799 408.036C480.361 411.707 480.691 412.209 480.691 412.945C480.804 414.058 486.927 418.423 503.011 418.423C519.051 418.423 524.402 414.105 524.402 412.945C524.402 412.304 524.549 412.097 526.371 409.578C530.103 404.416 538.829 392.334 540.642 382.892C543.752 366.728 541.421 350.715 541.397 350.556C541.273 349.723 541.845 348.949 542.676 348.822C543.528 348.716 544.277 349.274 544.401 350.101C544.501 350.777 546.836 366.775 543.629 383.468C541.689 393.571 532.68 406.037 528.833 411.362C528.255 412.165 527.659 412.986 527.418 413.364C526.881 417.46 518.523 421.471 503.011 421.471Z" fill="#2E2020"/>
<path d="M539.469 394.995C538.912 394.995 538.376 394.69 538.11 394.153C537.733 393.4 538.037 392.487 538.788 392.109C541.583 390.712 544.413 389.944 547.146 389.203C551.783 387.945 556.164 386.755 559.643 382.573C561.724 380.077 563.101 374.307 561.756 370.024C561.046 367.753 559.69 366.33 557.747 365.801C554.033 364.785 553.045 366.335 551.235 369.132C550.61 370.098 549.967 371.096 549.136 372.065C548.773 372.49 547.456 373.881 545.755 373.949C544.891 373.973 544.104 373.669 543.479 373.043C542.886 372.443 542.886 371.483 543.479 370.89C544.074 370.293 545.038 370.293 545.628 370.89C545.648 370.91 545.657 370.913 545.657 370.913C545.657 370.913 545.657 370.913 545.663 370.913C545.802 370.913 546.344 370.647 546.828 370.083C547.523 369.271 548.116 368.356 548.682 367.478C550.569 364.566 552.7 361.265 558.546 362.859C561.512 363.672 563.625 365.833 564.651 369.112C566.19 373.993 564.987 380.904 561.98 384.522C557.886 389.445 552.83 390.819 547.942 392.142C545.348 392.845 542.671 393.577 540.15 394.832C539.932 394.944 539.699 394.995 539.469 394.995Z" fill="#2E2020"/>
<path d="M535.849 403.04C535.713 403.04 535.584 403.031 535.472 403.013C534.897 402.931 534.068 402.615 533.376 401.572C532.913 400.875 533.099 399.93 533.8 399.46C534.493 398.997 535.442 399.183 535.905 399.88C535.92 399.901 535.923 399.909 535.935 399.924C535.976 399.901 536.023 399.862 536.082 399.815C536.601 399.381 537.073 398.973 537.524 398.589C540.271 396.23 542.255 394.523 546.998 393.394C547.895 393.179 548.879 392.975 549.899 392.768C553.44 392.036 557.446 391.209 559.928 389.437C565.931 385.146 569.109 374.697 566.732 367.077C565.822 364.165 564.28 362.133 562.148 361.044C559.781 359.83 556.718 359.791 553.292 360.94C550.571 361.841 546.707 364.605 546.707 365.982C546.707 366.823 546.029 367.505 545.191 367.505C544.345 367.505 543.667 366.823 543.667 365.982C543.667 361.814 550.908 358.524 552.331 358.046C556.55 356.64 560.424 356.738 563.531 358.329C566.379 359.791 568.49 362.497 569.633 366.165C572.404 375.06 568.77 386.85 561.694 391.912C558.693 394.065 554.345 394.963 550.51 395.745C549.522 395.952 548.573 396.147 547.7 396.354C543.676 397.313 542.193 398.586 539.499 400.899C539.045 401.292 538.558 401.711 538.028 402.157C537.193 402.854 536.424 403.04 535.849 403.04Z" fill="#2E2020"/>
<mask id="mask0_2031_1046" style="mask-type:luminance" maskUnits="userSpaceOnUse" x="434" y="406" width="141" height="25">
<path d="M434.553 406.262H574.171V430.65H434.553V406.262Z" fill="white"/>
</mask>
<g mask="url(#mask0_2031_1046)">
<path d="M504.356 430.65C486.134 430.65 468.991 429.492 456.085 427.396C434.915 423.952 434.915 419.537 434.915 418.084C434.915 411.353 455.752 408.199 473.228 406.74C474.089 406.646 474.802 407.289 474.87 408.131C474.94 408.967 474.321 409.702 473.481 409.77C446.637 412.018 437.955 416.338 437.955 418.084C437.955 421.406 460.761 427.605 504.356 427.605C547.957 427.605 570.766 421.406 570.766 418.084C570.766 416.214 561.3 411.657 532.046 409.522C531.206 409.46 530.575 408.734 530.637 407.892C530.699 407.056 531.445 406.415 532.265 406.486C547.777 407.62 573.805 410.63 573.805 418.084C573.805 419.537 573.805 423.952 552.632 427.396C539.726 429.492 522.583 430.65 504.356 430.65Z" fill="#2E2020"/>
</g>
<mask id="mask1_2031_1046" style="mask-type:luminance" maskUnits="userSpaceOnUse" x="568" y="373" width="44" height="5">
<path d="M568.133 373.702H611V377.482H568.133V373.702Z" fill="white"/>
</mask>
<g mask="url(#mask1_2031_1046)">
<path d="M609.352 377.473H570.22C569.38 377.473 568.699 376.788 568.699 375.949C568.699 375.107 569.38 374.428 570.22 374.428H609.352C610.187 374.428 610.868 375.107 610.868 375.949C610.868 376.788 610.187 377.473 609.352 377.473Z" fill="#2E2020"/>
</g>
<path d="M561.75 377.473H544.13C543.29 377.473 542.609 376.787 542.609 375.949C542.609 375.107 543.29 374.428 544.13 374.428H561.75C562.591 374.428 563.269 375.107 563.269 375.949C563.269 376.787 562.591 377.473 561.75 377.473Z" fill="#2E2020"/>
<path d="M459.596 377.473H446.843C446.003 377.473 445.322 376.787 445.322 375.949C445.322 375.107 446.003 374.428 446.843 374.428H459.596C460.442 374.428 461.12 375.107 461.12 375.949C461.12 376.787 460.442 377.473 459.596 377.473Z" fill="#2E2020"/>
<path d="M424.355 377.473H415.276C414.435 377.473 413.757 376.787 413.757 375.949C413.757 375.107 414.435 374.428 415.276 374.428H424.355C425.196 374.428 425.874 375.107 425.874 375.949C425.874 376.787 425.196 377.473 424.355 377.473Z" fill="#2E2020"/>
<mask id="mask2_2031_1046" style="mask-type:luminance" maskUnits="userSpaceOnUse" x="0" y="373" width="130" height="5">
<path d="M0.000244141 373.702H129.657V377.482H0.000244141V373.702Z" fill="white"/>
</mask>
<g mask="url(#mask2_2031_1046)">
<path d="M128.091 377.473H1.64809C0.813804 377.473 0.132812 376.788 0.132812 375.949C0.132812 375.107 0.813804 374.428 1.64809 374.428H128.091C128.926 374.428 129.607 375.107 129.607 375.949C129.607 376.788 128.926 377.473 128.091 377.473Z" fill="#2E2020"/>
</g>
<path fill-rule="evenodd" clip-rule="evenodd" d="M491.865 351.806C496.641 336.558 481.105 334.665 477.499 322.875C472.611 306.936 483.973 302.65 491.193 291.386C493.516 287.763 494.209 280.908 492.195 277.007C491.187 275.058 487.758 272.925 487.867 272.054C487.976 271.18 492.888 273.838 493.563 274.423C497.572 277.848 498.415 281.803 497.581 286.827C496.03 296.088 483.787 300.878 484.112 311.318C484.527 324.449 503.551 330.338 498.292 344.201C497.289 346.832 490.983 354.623 491.865 351.806Z" fill="#EFEFEF"/>
<path fill-rule="evenodd" clip-rule="evenodd" d="M498.851 311.442C497.657 311.743 494.724 304.378 498.627 292.765C500.019 288.628 502.64 283.126 506.018 278.383C513.409 268.019 496.626 261.841 493.277 250.908C491.526 245.187 493.067 237.898 495.42 232.491C496.177 230.751 496.888 228.965 497.705 227.243C498.038 226.534 498.669 224.266 498.539 225.04C497.195 233.093 494.123 241.07 498.751 249.006C502.728 255.837 511.366 260.329 513.317 268.344C516.749 282.47 506.269 285.113 501.67 295.961C497.032 306.915 500.467 311.041 498.851 311.442Z" fill="#EFEFEF"/>
<path fill-rule="evenodd" clip-rule="evenodd" d="M510.396 346.628C510.741 345.586 510.812 340.671 509.547 335.677C508.951 333.335 503.707 328.592 503.12 325.695C502.153 320.872 503.359 313.297 504.199 313.675C505.033 314.053 504.715 322.624 507.286 326.77C511.065 332.866 513.394 335.538 513.633 339.1C513.99 344.599 510.246 347.095 510.396 346.628Z" fill="#EFEFEF"/>
</svg>
